solid OpenSCAD_Model
  facet normal 0.309017 0.951057 -0
    outer loop
      vertex 7 32.18 -53.5
      vertex 5.23664 32.7529 -52.5
      vertex 7 32.18 -52.5
    endloop
  endfacet
  facet normal 0.309017 0.951057 0
    outer loop
      vertex 5.23664 32.7529 -52.5
      vertex 7 32.18 -53.5
      vertex 5.23664 32.7529 -53.5
    endloop
  endfacet
  facet normal -0.309017 -0.951057 0
    outer loop
      vertex 7 38.18 -53.5
      vertex 8.76336 37.6071 -52.5
      vertex 7 38.18 -52.5
    endloop
  endfacet
  facet normal -0.309017 -0.951057 -0
    outer loop
      vertex 8.76336 37.6071 -52.5
      vertex 7 38.18 -53.5
      vertex 8.76336 37.6071 -53.5
    endloop
  endfacet
  facet normal 1 -0 0
    outer loop
      vertex 4.14683 34.2529 -52.5
      vertex 4.14683 36.1071 -53.5
      vertex 4.14683 36.1071 -52.5
    endloop
  endfacet
  facet normal 1 0 0
    outer loop
      vertex 4.14683 36.1071 -53.5
      vertex 4.14683 34.2529 -52.5
      vertex 4.14683 34.2529 -53.5
    endloop
  endfacet
  facet normal 0.809017 0.587785 0
    outer loop
      vertex 5.23664 32.7529 -52.5
      vertex 4.14683 34.2529 -53.5
      vertex 4.14683 34.2529 -52.5
    endloop
  endfacet
  facet normal 0.809017 0.587785 0
    outer loop
      vertex 4.14683 34.2529 -53.5
      vertex 5.23664 32.7529 -52.5
      vertex 5.23664 32.7529 -53.5
    endloop
  endfacet
  facet normal 0.809017 -0.587785 0
    outer loop
      vertex 4.14683 36.1071 -52.5
      vertex 5.23664 37.6071 -53.5
      vertex 5.23664 37.6071 -52.5
    endloop
  endfacet
  facet normal 0.809017 -0.587785 0
    outer loop
      vertex 5.23664 37.6071 -53.5
      vertex 4.14683 36.1071 -52.5
      vertex 4.14683 36.1071 -53.5
    endloop
  endfacet
  facet normal -0.809017 0.587785 0
    outer loop
      vertex 8.76336 32.7529 -53.5
      vertex 9.85317 34.2529 -52.5
      vertex 9.85317 34.2529 -53.5
    endloop
  endfacet
  facet normal -0.809017 0.587785 0
    outer loop
      vertex 9.85317 34.2529 -52.5
      vertex 8.76336 32.7529 -53.5
      vertex 8.76336 32.7529 -52.5
    endloop
  endfacet
  facet normal -0.809017 -0.587785 0
    outer loop
      vertex 9.85317 36.1071 -53.5
      vertex 8.76336 37.6071 -52.5
      vertex 8.76336 37.6071 -53.5
    endloop
  endfacet
  facet normal -0.809017 -0.587785 0
    outer loop
      vertex 8.76336 37.6071 -52.5
      vertex 9.85317 36.1071 -53.5
      vertex 9.85317 36.1071 -52.5
    endloop
  endfacet
  facet normal 0.309017 -0.951057 0
    outer loop
      vertex 5.23664 37.6071 -53.5
      vertex 7 38.18 -52.5
      vertex 5.23664 37.6071 -52.5
    endloop
  endfacet
  facet normal 0.309017 -0.951057 0
    outer loop
      vertex 7 38.18 -52.5
      vertex 5.23664 37.6071 -53.5
      vertex 7 38.18 -53.5
    endloop
  endfacet
  facet normal -0.309017 0.951057 0
    outer loop
      vertex 8.76336 32.7529 -53.5
      vertex 7 32.18 -52.5
      vertex 8.76336 32.7529 -52.5
    endloop
  endfacet
  facet normal -0.309017 0.951057 0
    outer loop
      vertex 7 32.18 -52.5
      vertex 8.76336 32.7529 -53.5
      vertex 7 32.18 -53.5
    endloop
  endfacet
  facet normal -1 0 0
    outer loop
      vertex 9.85317 34.2529 -53.5
      vertex 9.85317 36.1071 -52.5
      vertex 9.85317 36.1071 -53.5
    endloop
  endfacet
  facet normal -1 -0 0
    outer loop
      vertex 9.85317 36.1071 -52.5
      vertex 9.85317 34.2529 -53.5
      vertex 9.85317 34.2529 -52.5
    endloop
  endfacet
  facet normal 0.309015 0.951057 -0
    outer loop
      vertex 7 66.18 -53.5
      vertex 5.23664 66.7529 -52.5
      vertex 7 66.18 -52.5
    endloop
  endfacet
  facet normal 0.309015 0.951057 0
    outer loop
      vertex 5.23664 66.7529 -52.5
      vertex 7 66.18 -53.5
      vertex 5.23664 66.7529 -53.5
    endloop
  endfacet
  facet normal 0.309019 -0.951056 0
    outer loop
      vertex 5.23664 71.607 -53.5
      vertex 7 72.18 -52.5
      vertex 5.23664 71.607 -52.5
    endloop
  endfacet
  facet normal 0.309019 -0.951056 0
    outer loop
      vertex 7 72.18 -52.5
      vertex 5.23664 71.607 -53.5
      vertex 7 72.18 -53.5
    endloop
  endfacet
  facet normal 1 -0 0
    outer loop
      vertex 4.14683 68.2529 -52.5
      vertex 4.14683 70.107 -53.5
      vertex 4.14683 70.107 -52.5
    endloop
  endfacet
  facet normal 1 0 0
    outer loop
      vertex 4.14683 70.107 -53.5
      vertex 4.14683 68.2529 -52.5
      vertex 4.14683 68.2529 -53.5
    endloop
  endfacet
  facet normal 0.809017 0.587785 0
    outer loop
      vertex 5.23664 66.7529 -52.5
      vertex 4.14683 68.2529 -53.5
      vertex 4.14683 68.2529 -52.5
    endloop
  endfacet
  facet normal 0.809017 0.587785 0
    outer loop
      vertex 4.14683 68.2529 -53.5
      vertex 5.23664 66.7529 -52.5
      vertex 5.23664 66.7529 -53.5
    endloop
  endfacet
  facet normal 0.809017 -0.587785 0
    outer loop
      vertex 4.14683 70.107 -52.5
      vertex 5.23664 71.607 -53.5
      vertex 5.23664 71.607 -52.5
    endloop
  endfacet
  facet normal 0.809017 -0.587785 0
    outer loop
      vertex 5.23664 71.607 -53.5
      vertex 4.14683 70.107 -52.5
      vertex 4.14683 70.107 -53.5
    endloop
  endfacet
  facet normal -0.309015 0.951057 0
    outer loop
      vertex 8.76336 66.7529 -53.5
      vertex 7 66.18 -52.5
      vertex 8.76336 66.7529 -52.5
    endloop
  endfacet
  facet normal -0.309015 0.951057 0
    outer loop
      vertex 7 66.18 -52.5
      vertex 8.76336 66.7529 -53.5
      vertex 7 66.18 -53.5
    endloop
  endfacet
  facet normal -0.309019 -0.951056 0
    outer loop
      vertex 7 72.18 -53.5
      vertex 8.76336 71.607 -52.5
      vertex 7 72.18 -52.5
    endloop
  endfacet
  facet normal -0.309019 -0.951056 -0
    outer loop
      vertex 8.76336 71.607 -52.5
      vertex 7 72.18 -53.5
      vertex 8.76336 71.607 -53.5
    endloop
  endfacet
  facet normal -1 0 0
    outer loop
      vertex 9.85317 68.2529 -53.5
      vertex 9.85317 70.107 -52.5
      vertex 9.85317 70.107 -53.5
    endloop
  endfacet
  facet normal -1 -0 0
    outer loop
      vertex 9.85317 70.107 -52.5
      vertex 9.85317 68.2529 -53.5
      vertex 9.85317 68.2529 -52.5
    endloop
  endfacet
  facet normal -0.809017 0.587785 0
    outer loop
      vertex 8.76336 66.7529 -53.5
      vertex 9.85317 68.2529 -52.5
      vertex 9.85317 68.2529 -53.5
    endloop
  endfacet
  facet normal -0.809017 0.587785 0
    outer loop
      vertex 9.85317 68.2529 -52.5
      vertex 8.76336 66.7529 -53.5
      vertex 8.76336 66.7529 -52.5
    endloop
  endfacet
  facet normal -0.809017 -0.587785 0
    outer loop
      vertex 9.85317 70.107 -53.5
      vertex 8.76336 71.607 -52.5
      vertex 8.76336 71.607 -53.5
    endloop
  endfacet
  facet normal -0.809017 -0.587785 0
    outer loop
      vertex 8.76336 71.607 -52.5
      vertex 9.85317 70.107 -53.5
      vertex 9.85317 70.107 -52.5
    endloop
  endfacet
  facet normal 1 -0 0
    outer loop
      vertex 3.52447 41.5255 -52.5
      vertex 3.52447 62.0255 -53.5
      vertex 3.52447 62.0255 -52.5
    endloop
  endfacet
  facet normal 1 0 0
    outer loop
      vertex 3.52447 62.0255 -53.5
      vertex 3.52447 41.5255 -52.5
      vertex 3.52447 41.5255 -53.5
    endloop
  endfacet
  facet normal -0.951057 -0.309015 0
    outer loop
      vertex 10.4755 64.0255 -53.5
      vertex 10.2939 64.5845 -52.5
      vertex 10.2939 64.5845 -53.5
    endloop
  endfacet
  facet normal -0.951057 -0.309015 0
    outer loop
      vertex 10.2939 64.5845 -52.5
      vertex 10.4755 64.0255 -53.5
      vertex 10.4755 64.0255 -52.5
    endloop
  endfacet
  facet normal 0.951056 -0.309017 0
    outer loop
      vertex 3.52447 62.0255 -52.5
      vertex 3.70611 62.5845 -53.5
      vertex 3.70611 62.5845 -52.5
    endloop
  endfacet
  facet normal 0.951056 -0.309017 0
    outer loop
      vertex 3.70611 62.5845 -53.5
      vertex 3.52447 62.0255 -52.5
      vertex 3.52447 62.0255 -53.5
    endloop
  endfacet
  facet normal -1 0 0
    outer loop
      vertex 10.4755 40.0255 -53.5
      vertex 10.4755 64.0255 -52.5
      vertex 10.4755 64.0255 -53.5
    endloop
  endfacet
  facet normal -1 -0 0
    outer loop
      vertex 10.4755 64.0255 -52.5
      vertex 10.4755 40.0255 -53.5
      vertex 10.4755 40.0255 -52.5
    endloop
  endfacet
  facet normal 0.554701 -0.83205 0
    outer loop
      vertex 3.70611 62.5845 -53.5
      vertex 6.70611 64.5845 -52.5
      vertex 3.70611 62.5845 -52.5
    endloop
  endfacet
  facet normal 0.554701 -0.83205 0
    outer loop
      vertex 6.70611 64.5845 -52.5
      vertex 3.70611 62.5845 -53.5
      vertex 6.70611 64.5845 -53.5
    endloop
  endfacet
  facet normal -0.587783 0.809018 0
    outer loop
      vertex 10.4755 40.0255 -53.5
      vertex 10 39.68 -52.5
      vertex 10.4755 40.0255 -52.5
    endloop
  endfacet
  facet normal -0.587783 0.809018 0
    outer loop
      vertex 10 39.68 -52.5
      vertex 10.4755 40.0255 -53.5
      vertex 10 39.68 -53.5
    endloop
  endfacet
  facet normal 0 -1 0
    outer loop
      vertex 6.70611 64.5845 -53.5
      vertex 10.2939 64.5845 -52.5
      vertex 6.70611 64.5845 -52.5
    endloop
  endfacet
  facet normal 0 -1 -0
    outer loop
      vertex 10.2939 64.5845 -52.5
      vertex 6.70611 64.5845 -53.5
      vertex 10.2939 64.5845 -53.5
    endloop
  endfacet
  facet normal 0 1 -0
    outer loop
      vertex 10 39.68 -53.5
      vertex 7 39.68 -52.5
      vertex 10 39.68 -52.5
    endloop
  endfacet
  facet normal 0 1 0
    outer loop
      vertex 7 39.68 -52.5
      vertex 10 39.68 -53.5
      vertex 7 39.68 -53.5
    endloop
  endfacet
  facet normal 0.587783 0.809018 -0
    outer loop
      vertex 4 41.18 -53.5
      vertex 3.52447 41.5255 -52.5
      vertex 4 41.18 -52.5
    endloop
  endfacet
  facet normal 0.587783 0.809018 0
    outer loop
      vertex 3.52447 41.5255 -52.5
      vertex 4 41.18 -53.5
      vertex 3.52447 41.5255 -53.5
    endloop
  endfacet
  facet normal 0.447214 0.894427 -0
    outer loop
      vertex 7 39.68 -53.5
      vertex 4 41.18 -52.5
      vertex 7 39.68 -52.5
    endloop
  endfacet
  facet normal 0.447214 0.894427 0
    outer loop
      vertex 4 41.18 -52.5
      vertex 7 39.68 -53.5
      vertex 4 41.18 -53.5
    endloop
  endfacet
  facet normal 0.309019 0.951056 -0
    outer loop
      vertex 7 73.18 -53.5
      vertex 5.23664 73.753 -52.5
      vertex 7 73.18 -52.5
    endloop
  endfacet
  facet normal 0.309019 0.951056 0
    outer loop
      vertex 5.23664 73.753 -52.5
      vertex 7 73.18 -53.5
      vertex 5.23664 73.753 -53.5
    endloop
  endfacet
  facet normal 0.309019 -0.951056 0
    outer loop
      vertex 5.23664 78.607 -53.5
      vertex 7 79.18 -52.5
      vertex 5.23664 78.607 -52.5
    endloop
  endfacet
  facet normal 0.309019 -0.951056 0
    outer loop
      vertex 7 79.18 -52.5
      vertex 5.23664 78.607 -53.5
      vertex 7 79.18 -53.5
    endloop
  endfacet
  facet normal -1 0 0
    outer loop
      vertex 9.85317 75.253 -53.5
      vertex 9.85317 77.107 -52.5
      vertex 9.85317 77.107 -53.5
    endloop
  endfacet
  facet normal -1 -0 0
    outer loop
      vertex 9.85317 77.107 -52.5
      vertex 9.85317 75.253 -53.5
      vertex 9.85317 75.253 -52.5
    endloop
  endfacet
  facet normal 1 -0 0
    outer loop
      vertex 4.14683 75.253 -52.5
      vertex 4.14683 77.107 -53.5
      vertex 4.14683 77.107 -52.5
    endloop
  endfacet
  facet normal 1 0 0
    outer loop
      vertex 4.14683 77.107 -53.5
      vertex 4.14683 75.253 -52.5
      vertex 4.14683 75.253 -53.5
    endloop
  endfacet
  facet normal 0.809017 0.587785 0
    outer loop
      vertex 5.23664 73.753 -52.5
      vertex 4.14683 75.253 -53.5
      vertex 4.14683 75.253 -52.5
    endloop
  endfacet
  facet normal 0.809017 0.587785 0
    outer loop
      vertex 4.14683 75.253 -53.5
      vertex 5.23664 73.753 -52.5
      vertex 5.23664 73.753 -53.5
    endloop
  endfacet
  facet normal 0.809017 -0.587785 0
    outer loop
      vertex 4.14683 77.107 -52.5
      vertex 5.23664 78.607 -53.5
      vertex 5.23664 78.607 -52.5
    endloop
  endfacet
  facet normal 0.809017 -0.587785 0
    outer loop
      vertex 5.23664 78.607 -53.5
      vertex 4.14683 77.107 -52.5
      vertex 4.14683 77.107 -53.5
    endloop
  endfacet
  facet normal -0.309019 0.951056 0
    outer loop
      vertex 8.76336 73.753 -53.5
      vertex 7 73.18 -52.5
      vertex 8.76336 73.753 -52.5
    endloop
  endfacet
  facet normal -0.309019 0.951056 0
    outer loop
      vertex 7 73.18 -52.5
      vertex 8.76336 73.753 -53.5
      vertex 7 73.18 -53.5
    endloop
  endfacet
  facet normal -0.309019 -0.951056 0
    outer loop
      vertex 7 79.18 -53.5
      vertex 8.76336 78.607 -52.5
      vertex 7 79.18 -52.5
    endloop
  endfacet
  facet normal -0.309019 -0.951056 -0
    outer loop
      vertex 8.76336 78.607 -52.5
      vertex 7 79.18 -53.5
      vertex 8.76336 78.607 -53.5
    endloop
  endfacet
  facet normal -0.809017 0.587785 0
    outer loop
      vertex 8.76336 73.753 -53.5
      vertex 9.85317 75.253 -52.5
      vertex 9.85317 75.253 -53.5
    endloop
  endfacet
  facet normal -0.809017 0.587785 0
    outer loop
      vertex 9.85317 75.253 -52.5
      vertex 8.76336 73.753 -53.5
      vertex 8.76336 73.753 -52.5
    endloop
  endfacet
  facet normal -0.809017 -0.587785 0
    outer loop
      vertex 9.85317 77.107 -53.5
      vertex 8.76336 78.607 -52.5
      vertex 8.76336 78.607 -53.5
    endloop
  endfacet
  facet normal -0.809017 -0.587785 0
    outer loop
      vertex 8.76336 78.607 -52.5
      vertex 9.85317 77.107 -53.5
      vertex 9.85317 77.107 -52.5
    endloop
  endfacet
  facet normal 0.309015 0.951057 -0
    outer loop
      vertex 7 98.18 -53.5
      vertex 5.23664 98.7529 -52.5
      vertex 7 98.18 -52.5
    endloop
  endfacet
  facet normal 0.309015 0.951057 0
    outer loop
      vertex 5.23664 98.7529 -52.5
      vertex 7 98.18 -53.5
      vertex 5.23664 98.7529 -53.5
    endloop
  endfacet
  facet normal 0.309019 -0.951056 0
    outer loop
      vertex 5.23664 103.607 -53.5
      vertex 7 104.18 -52.5
      vertex 5.23664 103.607 -52.5
    endloop
  endfacet
  facet normal 0.309019 -0.951056 0
    outer loop
      vertex 7 104.18 -52.5
      vertex 5.23664 103.607 -53.5
      vertex 7 104.18 -53.5
    endloop
  endfacet
  facet normal 1 -0 0
    outer loop
      vertex 4.14683 100.253 -52.5
      vertex 4.14683 102.107 -53.5
      vertex 4.14683 102.107 -52.5
    endloop
  endfacet
  facet normal 1 0 0
    outer loop
      vertex 4.14683 102.107 -53.5
      vertex 4.14683 100.253 -52.5
      vertex 4.14683 100.253 -53.5
    endloop
  endfacet
  facet normal 0.809017 0.587785 0
    outer loop
      vertex 5.23664 98.7529 -52.5
      vertex 4.14683 100.253 -53.5
      vertex 4.14683 100.253 -52.5
    endloop
  endfacet
  facet normal 0.809017 0.587785 0
    outer loop
      vertex 4.14683 100.253 -53.5
      vertex 5.23664 98.7529 -52.5
      vertex 5.23664 98.7529 -53.5
    endloop
  endfacet
  facet normal 0.809017 -0.587785 0
    outer loop
      vertex 4.14683 102.107 -52.5
      vertex 5.23664 103.607 -53.5
      vertex 5.23664 103.607 -52.5
    endloop
  endfacet
  facet normal 0.809017 -0.587785 0
    outer loop
      vertex 5.23664 103.607 -53.5
      vertex 4.14683 102.107 -52.5
      vertex 4.14683 102.107 -53.5
    endloop
  endfacet
  facet normal -0.309015 0.951057 0
    outer loop
      vertex 8.76336 98.7529 -53.5
      vertex 7 98.18 -52.5
      vertex 8.76336 98.7529 -52.5
    endloop
  endfacet
  facet normal -0.309015 0.951057 0
    outer loop
      vertex 7 98.18 -52.5
      vertex 8.76336 98.7529 -53.5
      vertex 7 98.18 -53.5
    endloop
  endfacet
  facet normal -0.309019 -0.951056 0
    outer loop
      vertex 7 104.18 -53.5
      vertex 8.76336 103.607 -52.5
      vertex 7 104.18 -52.5
    endloop
  endfacet
  facet normal -0.309019 -0.951056 -0
    outer loop
      vertex 8.76336 103.607 -52.5
      vertex 7 104.18 -53.5
      vertex 8.76336 103.607 -53.5
    endloop
  endfacet
  facet normal -1 0 0
    outer loop
      vertex 9.85317 100.253 -53.5
      vertex 9.85317 102.107 -52.5
      vertex 9.85317 102.107 -53.5
    endloop
  endfacet
  facet normal -1 -0 0
    outer loop
      vertex 9.85317 102.107 -52.5
      vertex 9.85317 100.253 -53.5
      vertex 9.85317 100.253 -52.5
    endloop
  endfacet
  facet normal -0.809017 0.587785 0
    outer loop
      vertex 8.76336 98.7529 -53.5
      vertex 9.85317 100.253 -52.5
      vertex 9.85317 100.253 -53.5
    endloop
  endfacet
  facet normal -0.809017 0.587785 0
    outer loop
      vertex 9.85317 100.253 -52.5
      vertex 8.76336 98.7529 -53.5
      vertex 8.76336 98.7529 -52.5
    endloop
  endfacet
  facet normal -0.809017 -0.587785 0
    outer loop
      vertex 9.85317 102.107 -53.5
      vertex 8.76336 103.607 -52.5
      vertex 8.76336 103.607 -53.5
    endloop
  endfacet
  facet normal -0.809017 -0.587785 0
    outer loop
      vertex 8.76336 103.607 -52.5
      vertex 9.85317 102.107 -53.5
      vertex 9.85317 102.107 -52.5
    endloop
  endfacet
  facet normal 0 -1 0
    outer loop
      vertex 6.70611 97.0845 -53.5
      vertex 10.2939 97.0845 -52.5
      vertex 6.70611 97.0845 -52.5
    endloop
  endfacet
  facet normal 0 -1 -0
    outer loop
      vertex 10.2939 97.0845 -52.5
      vertex 6.70611 97.0845 -53.5
      vertex 10.2939 97.0845 -53.5
    endloop
  endfacet
  facet normal 0.5547 -0.83205 0
    outer loop
      vertex 3.70611 95.0845 -53.5
      vertex 6.70611 97.0845 -52.5
      vertex 3.70611 95.0845 -52.5
    endloop
  endfacet
  facet normal 0.5547 -0.83205 0
    outer loop
      vertex 6.70611 97.0845 -52.5
      vertex 3.70611 95.0845 -53.5
      vertex 6.70611 97.0845 -53.5
    endloop
  endfacet
  facet normal -0.587783 0.809018 0
    outer loop
      vertex 10.4755 80.1955 -53.5
      vertex 10 79.85 -52.5
      vertex 10.4755 80.1955 -52.5
    endloop
  endfacet
  facet normal -0.587783 0.809018 0
    outer loop
      vertex 10 79.85 -52.5
      vertex 10.4755 80.1955 -53.5
      vertex 10 79.85 -53.5
    endloop
  endfacet
  facet normal 0.951057 -0.309015 0
    outer loop
      vertex 3.52447 94.5255 -52.5
      vertex 3.70611 95.0845 -53.5
      vertex 3.70611 95.0845 -52.5
    endloop
  endfacet
  facet normal 0.951057 -0.309015 0
    outer loop
      vertex 3.70611 95.0845 -53.5
      vertex 3.52447 94.5255 -52.5
      vertex 3.52447 94.5255 -53.5
    endloop
  endfacet
  facet normal -0.951057 -0.309015 0
    outer loop
      vertex 10.4755 96.5255 -53.5
      vertex 10.2939 97.0845 -52.5
      vertex 10.2939 97.0845 -53.5
    endloop
  endfacet
  facet normal -0.951057 -0.309015 0
    outer loop
      vertex 10.2939 97.0845 -52.5
      vertex 10.4755 96.5255 -53.5
      vertex 10.4755 96.5255 -52.5
    endloop
  endfacet
  facet normal -1 0 0
    outer loop
      vertex 10.4755 80.1955 -53.5
      vertex 10.4755 96.5255 -52.5
      vertex 10.4755 96.5255 -53.5
    endloop
  endfacet
  facet normal -1 -0 0
    outer loop
      vertex 10.4755 96.5255 -52.5
      vertex 10.4755 80.1955 -53.5
      vertex 10.4755 80.1955 -52.5
    endloop
  endfacet
  facet normal 0 1 -0
    outer loop
      vertex 10 79.85 -53.5
      vertex 7 79.85 -52.5
      vertex 10 79.85 -52.5
    endloop
  endfacet
  facet normal 0 1 0
    outer loop
      vertex 7 79.85 -52.5
      vertex 10 79.85 -53.5
      vertex 7 79.85 -53.5
    endloop
  endfacet
  facet normal 0.447214 0.894427 -0
    outer loop
      vertex 7 79.85 -53.5
      vertex 4 81.35 -52.5
      vertex 7 79.85 -52.5
    endloop
  endfacet
  facet normal 0.447214 0.894427 0
    outer loop
      vertex 4 81.35 -52.5
      vertex 7 79.85 -53.5
      vertex 4 81.35 -53.5
    endloop
  endfacet
  facet normal 1 -0 0
    outer loop
      vertex 3.52447 81.6955 -52.5
      vertex 3.52447 94.5255 -53.5
      vertex 3.52447 94.5255 -52.5
    endloop
  endfacet
  facet normal 1 0 0
    outer loop
      vertex 3.52447 94.5255 -53.5
      vertex 3.52447 81.6955 -52.5
      vertex 3.52447 81.6955 -53.5
    endloop
  endfacet
  facet normal 0.587783 0.809018 -0
    outer loop
      vertex 4 81.35 -53.5
      vertex 3.52447 81.6955 -52.5
      vertex 4 81.35 -52.5
    endloop
  endfacet
  facet normal 0.587783 0.809018 0
    outer loop
      vertex 3.52447 81.6955 -52.5
      vertex 4 81.35 -53.5
      vertex 3.52447 81.6955 -53.5
    endloop
  endfacet
  facet normal -1 0 0
    outer loop
      vertex 13 -7.82 -53.5
      vertex 13 2.08 -52.5
      vertex 13 2.08 -53.5
    endloop
  endfacet
  facet normal -1 -0 0
    outer loop
      vertex 13 2.08 -52.5
      vertex 13 -7.82 -53.5
      vertex 13 -7.82 -52.5
    endloop
  endfacet
  facet normal 0 -1 0
    outer loop
      vertex 2 2.08 -53.5
      vertex 13 2.08 -52.5
      vertex 2 2.08 -52.5
    endloop
  endfacet
  facet normal 0 -1 -0
    outer loop
      vertex 13 2.08 -52.5
      vertex 2 2.08 -53.5
      vertex 13 2.08 -53.5
    endloop
  endfacet
  facet normal 1 -0 0
    outer loop
      vertex 2 -7.82 -52.5
      vertex 2 2.08 -53.5
      vertex 2 2.08 -52.5
    endloop
  endfacet
  facet normal 1 0 0
    outer loop
      vertex 2 2.08 -53.5
      vertex 2 -7.82 -52.5
      vertex 2 -7.82 -53.5
    endloop
  endfacet
  facet normal 0 1 -0
    outer loop
      vertex 13 -7.82 -53.5
      vertex 2 -7.82 -52.5
      vertex 13 -7.82 -52.5
    endloop
  endfacet
  facet normal 0 1 0
    outer loop
      vertex 2 -7.82 -52.5
      vertex 13 -7.82 -53.5
      vertex 2 -7.82 -53.5
    endloop
  endfacet
  facet normal 0.951056 -0.309018 0
    outer loop
      vertex 2.52447 21.5255 -52.5
      vertex 2.70611 22.0845 -53.5
      vertex 2.70611 22.0845 -52.5
    endloop
  endfacet
  facet normal 0.951056 -0.309018 0
    outer loop
      vertex 2.70611 22.0845 -53.5
      vertex 2.52447 21.5255 -52.5
      vertex 2.52447 21.5255 -53.5
    endloop
  endfacet
  facet normal 0 -1 0
    outer loop
      vertex 5.70611 25.0845 -53.5
      vertex 9.29389 25.0845 -52.5
      vertex 5.70611 25.0845 -52.5
    endloop
  endfacet
  facet normal 0 -1 -0
    outer loop
      vertex 9.29389 25.0845 -52.5
      vertex 5.70611 25.0845 -53.5
      vertex 9.29389 25.0845 -53.5
    endloop
  endfacet
  facet normal 0.587786 0.809017 -0
    outer loop
      vertex 6 9.18 -53.5
      vertex 5.52447 9.52549 -52.5
      vertex 6 9.18 -52.5
    endloop
  endfacet
  facet normal 0.587786 0.809017 0
    outer loop
      vertex 5.52447 9.52549 -52.5
      vertex 6 9.18 -53.5
      vertex 5.52447 9.52549 -53.5
    endloop
  endfacet
  facet normal -1 0 0
    outer loop
      vertex 9.47553 9.52549 -53.5
      vertex 9.47553 24.5255 -52.5
      vertex 9.47553 24.5255 -53.5
    endloop
  endfacet
  facet normal -1 -0 0
    outer loop
      vertex 9.47553 24.5255 -52.5
      vertex 9.47553 9.52549 -53.5
      vertex 9.47553 9.52549 -52.5
    endloop
  endfacet
  facet normal 1 -0 0
    outer loop
      vertex 2.52447 12.5255 -52.5
      vertex 2.52447 21.5255 -53.5
      vertex 2.52447 21.5255 -52.5
    endloop
  endfacet
  facet normal 1 0 0
    outer loop
      vertex 2.52447 21.5255 -53.5
      vertex 2.52447 12.5255 -52.5
      vertex 2.52447 12.5255 -53.5
    endloop
  endfacet
  facet normal 0.707107 -0.707107 0
    outer loop
      vertex 2.70611 22.0845 -52.5
      vertex 5.70611 25.0845 -53.5
      vertex 5.70611 25.0845 -52.5
    endloop
  endfacet
  facet normal 0.707107 -0.707107 0
    outer loop
      vertex 5.70611 25.0845 -53.5
      vertex 2.70611 22.0845 -52.5
      vertex 2.70611 22.0845 -53.5
    endloop
  endfacet
  facet normal -0.951056 -0.309018 0
    outer loop
      vertex 9.47553 24.5255 -53.5
      vertex 9.29389 25.0845 -52.5
      vertex 9.29389 25.0845 -53.5
    endloop
  endfacet
  facet normal -0.951056 -0.309018 0
    outer loop
      vertex 9.29389 25.0845 -52.5
      vertex 9.47553 24.5255 -53.5
      vertex 9.47553 24.5255 -52.5
    endloop
  endfacet
  facet normal 0.707107 0.707107 0
    outer loop
      vertex 5.52447 9.52549 -52.5
      vertex 2.52447 12.5255 -53.5
      vertex 2.52447 12.5255 -52.5
    endloop
  endfacet
  facet normal 0.707107 0.707107 0
    outer loop
      vertex 2.52447 12.5255 -53.5
      vertex 5.52447 9.52549 -52.5
      vertex 5.52447 9.52549 -53.5
    endloop
  endfacet
  facet normal 0 1 -0
    outer loop
      vertex 9 9.18 -53.5
      vertex 6 9.18 -52.5
      vertex 9 9.18 -52.5
    endloop
  endfacet
  facet normal 0 1 0
    outer loop
      vertex 6 9.18 -52.5
      vertex 9 9.18 -53.5
      vertex 6 9.18 -53.5
    endloop
  endfacet
  facet normal -0.587785 0.809017 0
    outer loop
      vertex 9.47553 9.52549 -53.5
      vertex 9 9.18 -52.5
      vertex 9.47553 9.52549 -52.5
    endloop
  endfacet
  facet normal -0.587785 0.809017 0
    outer loop
      vertex 9 9.18 -52.5
      vertex 9.47553 9.52549 -53.5
      vertex 9 9.18 -53.5
    endloop
  endfacet
  facet normal 0 0 1
    outer loop
      vertex 9.85317 34.2529 -52.5
      vertex 9.29389 25.0845 -52.5
      vertex 9.47553 24.5255 -52.5
    endloop
  endfacet
  facet normal -0 0 1
    outer loop
      vertex 8.76336 32.7529 -52.5
      vertex 9.29389 25.0845 -52.5
      vertex 9.85317 34.2529 -52.5
    endloop
  endfacet
  facet normal -0 0 1
    outer loop
      vertex 7 32.18 -52.5
      vertex 9.29389 25.0845 -52.5
      vertex 8.76336 32.7529 -52.5
    endloop
  endfacet
  facet normal 0 0 1
    outer loop
      vertex 7 32.18 -52.5
      vertex 5.70611 25.0845 -52.5
      vertex 9.29389 25.0845 -52.5
    endloop
  endfacet
  facet normal 0 0 1
    outer loop
      vertex 5.23664 32.7529 -52.5
      vertex 5.70611 25.0845 -52.5
      vertex 7 32.18 -52.5
    endloop
  endfacet
  facet normal 0 0 1
    outer loop
      vertex 2.70611 22.0845 -52.5
      vertex 5.23664 32.7529 -52.5
      vertex 4.14683 34.2529 -52.5
    endloop
  endfacet
  facet normal 0 0 1
    outer loop
      vertex 4.14683 36.1071 -52.5
      vertex 3.52447 41.5255 -52.5
      vertex 4.14683 34.2529 -52.5
    endloop
  endfacet
  facet normal 0 0 1
    outer loop
      vertex 5.23664 32.7529 -52.5
      vertex 2.70611 22.0845 -52.5
      vertex 5.70611 25.0845 -52.5
    endloop
  endfacet
  facet normal 0 0 1
    outer loop
      vertex 2.52447 21.5255 -52.5
      vertex 4.14683 34.2529 -52.5
      vertex 3.52447 41.5255 -52.5
    endloop
  endfacet
  facet normal 0 0 1
    outer loop
      vertex 10 39.68 -52.5
      vertex 8.76336 37.6071 -52.5
      vertex 9.85317 36.1071 -52.5
    endloop
  endfacet
  facet normal -0 0 1
    outer loop
      vertex 7 39.68 -52.5
      vertex 8.76336 37.6071 -52.5
      vertex 10 39.68 -52.5
    endloop
  endfacet
  facet normal 0 0 1
    outer loop
      vertex 7 39.68 -52.5
      vertex 7 38.18 -52.5
      vertex 8.76336 37.6071 -52.5
    endloop
  endfacet
  facet normal 0 0 1
    outer loop
      vertex 7 39.68 -52.5
      vertex 5.23664 37.6071 -52.5
      vertex 7 38.18 -52.5
    endloop
  endfacet
  facet normal 0 0 1
    outer loop
      vertex 3.52447 41.5255 -52.5
      vertex 4.14683 36.1071 -52.5
      vertex 4 41.18 -52.5
    endloop
  endfacet
  facet normal 0 0 1
    outer loop
      vertex 5.23664 37.6071 -52.5
      vertex 4 41.18 -52.5
      vertex 4.14683 36.1071 -52.5
    endloop
  endfacet
  facet normal 0 0 1
    outer loop
      vertex 4 41.18 -52.5
      vertex 5.23664 37.6071 -52.5
      vertex 7 39.68 -52.5
    endloop
  endfacet
  facet normal -0 0 1
    outer loop
      vertex 8.76336 73.753 -52.5
      vertex 9.85317 70.107 -52.5
      vertex 9.85317 75.253 -52.5
    endloop
  endfacet
  facet normal 0 0 1
    outer loop
      vertex 8.76336 73.753 -52.5
      vertex 8.76336 71.607 -52.5
      vertex 9.85317 70.107 -52.5
    endloop
  endfacet
  facet normal -0 0 1
    outer loop
      vertex 7 73.18 -52.5
      vertex 8.76336 71.607 -52.5
      vertex 8.76336 73.753 -52.5
    endloop
  endfacet
  facet normal 0 0 1
    outer loop
      vertex 7 73.18 -52.5
      vertex 7 72.18 -52.5
      vertex 8.76336 71.607 -52.5
    endloop
  endfacet
  facet normal 0 0 1
    outer loop
      vertex 5.23664 73.753 -52.5
      vertex 7 72.18 -52.5
      vertex 7 73.18 -52.5
    endloop
  endfacet
  facet normal 0 0 1
    outer loop
      vertex 5.23664 73.753 -52.5
      vertex 5.23664 71.607 -52.5
      vertex 7 72.18 -52.5
    endloop
  endfacet
  facet normal 0 0 1
    outer loop
      vertex 4.14683 75.253 -52.5
      vertex 5.23664 71.607 -52.5
      vertex 5.23664 73.753 -52.5
    endloop
  endfacet
  facet normal 0 0 1
    outer loop
      vertex 5.23664 71.607 -52.5
      vertex 4.14683 75.253 -52.5
      vertex 4.14683 70.107 -52.5
    endloop
  endfacet
  facet normal 0 0 1
    outer loop
      vertex 10 79.85 -52.5
      vertex 8.76336 78.607 -52.5
      vertex 9.85317 77.107 -52.5
    endloop
  endfacet
  facet normal -0 0 1
    outer loop
      vertex 7 79.85 -52.5
      vertex 8.76336 78.607 -52.5
      vertex 10 79.85 -52.5
    endloop
  endfacet
  facet normal 0 0 1
    outer loop
      vertex 7 79.85 -52.5
      vertex 7 79.18 -52.5
      vertex 8.76336 78.607 -52.5
    endloop
  endfacet
  facet normal 0 0 1
    outer loop
      vertex 7 79.85 -52.5
      vertex 5.23664 78.607 -52.5
      vertex 7 79.18 -52.5
    endloop
  endfacet
  facet normal 0 0 1
    outer loop
      vertex 3.52447 81.6955 -52.5
      vertex 4.14683 75.253 -52.5
      vertex 4.14683 77.107 -52.5
    endloop
  endfacet
  facet normal 0 0 1
    outer loop
      vertex 4.14683 75.253 -52.5
      vertex 3.52447 81.6955 -52.5
      vertex 4.14683 70.107 -52.5
    endloop
  endfacet
  facet normal 0 0 1
    outer loop
      vertex 3.52447 81.6955 -52.5
      vertex 4.14683 77.107 -52.5
      vertex 4 81.35 -52.5
    endloop
  endfacet
  facet normal 0 0 1
    outer loop
      vertex 5.23664 78.607 -52.5
      vertex 4 81.35 -52.5
      vertex 4.14683 77.107 -52.5
    endloop
  endfacet
  facet normal 0 0 1
    outer loop
      vertex 4 81.35 -52.5
      vertex 5.23664 78.607 -52.5
      vertex 7 79.85 -52.5
    endloop
  endfacet
  facet normal -0 0 1
    outer loop
      vertex 9.85317 70.107 -52.5
      vertex 10.4755 64.0255 -52.5
      vertex 10.4755 80.1955 -52.5
    endloop
  endfacet
  facet normal 0 0 1
    outer loop
      vertex 9.85317 77.107 -52.5
      vertex 10.4755 80.1955 -52.5
      vertex 10 79.85 -52.5
    endloop
  endfacet
  facet normal 0 0 1
    outer loop
      vertex 10.4755 80.1955 -52.5
      vertex 9.85317 77.107 -52.5
      vertex 9.85317 75.253 -52.5
    endloop
  endfacet
  facet normal 0 0 1
    outer loop
      vertex 9.85317 70.107 -52.5
      vertex 10.4755 80.1955 -52.5
      vertex 9.85317 75.253 -52.5
    endloop
  endfacet
  facet normal -0 0 1
    outer loop
      vertex 9.85317 68.2529 -52.5
      vertex 10.4755 64.0255 -52.5
      vertex 9.85317 70.107 -52.5
    endloop
  endfacet
  facet normal 0 0 1
    outer loop
      vertex 10.4755 64.0255 -52.5
      vertex 9.85317 68.2529 -52.5
      vertex 10.2939 64.5845 -52.5
    endloop
  endfacet
  facet normal -0 0 1
    outer loop
      vertex 8.76336 66.7529 -52.5
      vertex 10.2939 64.5845 -52.5
      vertex 9.85317 68.2529 -52.5
    endloop
  endfacet
  facet normal 0 0 1
    outer loop
      vertex 6.70611 64.5845 -52.5
      vertex 8.76336 66.7529 -52.5
      vertex 7 66.18 -52.5
    endloop
  endfacet
  facet normal 0 0 1
    outer loop
      vertex 8.76336 66.7529 -52.5
      vertex 6.70611 64.5845 -52.5
      vertex 10.2939 64.5845 -52.5
    endloop
  endfacet
  facet normal 0 0 1
    outer loop
      vertex 5.23664 66.7529 -52.5
      vertex 6.70611 64.5845 -52.5
      vertex 7 66.18 -52.5
    endloop
  endfacet
  facet normal 0 0 1
    outer loop
      vertex 3.70611 62.5845 -52.5
      vertex 5.23664 66.7529 -52.5
      vertex 4.14683 68.2529 -52.5
    endloop
  endfacet
  facet normal 0 0 1
    outer loop
      vertex 5.23664 66.7529 -52.5
      vertex 3.70611 62.5845 -52.5
      vertex 6.70611 64.5845 -52.5
    endloop
  endfacet
  facet normal 0 0 1
    outer loop
      vertex 3.52447 62.0255 -52.5
      vertex 4.14683 70.107 -52.5
      vertex 3.52447 81.6955 -52.5
    endloop
  endfacet
  facet normal 0 0 1
    outer loop
      vertex 4.14683 70.107 -52.5
      vertex 3.52447 62.0255 -52.5
      vertex 4.14683 68.2529 -52.5
    endloop
  endfacet
  facet normal 0 0 1
    outer loop
      vertex 4.14683 68.2529 -52.5
      vertex 3.52447 62.0255 -52.5
      vertex 3.70611 62.5845 -52.5
    endloop
  endfacet
  facet normal -0 0 1
    outer loop
      vertex 10.4755 64.0255 -52.5
      vertex 16 -11.82 -52.5
      vertex 16 118.18 -52.5
    endloop
  endfacet
  facet normal 0 0 1
    outer loop
      vertex 10.4755 80.1955 -52.5
      vertex 16 118.18 -52.5
      vertex 10.4755 96.5255 -52.5
    endloop
  endfacet
  facet normal -0 0 1
    outer loop
      vertex 9.85317 102.107 -52.5
      vertex 10.4755 96.5255 -52.5
      vertex 16 118.18 -52.5
    endloop
  endfacet
  facet normal -0 0 1
    outer loop
      vertex 9.85317 100.253 -52.5
      vertex 10.4755 96.5255 -52.5
      vertex 9.85317 102.107 -52.5
    endloop
  endfacet
  facet normal 0 0 1
    outer loop
      vertex 16 118.18 -52.5
      vertex 8.76336 103.607 -52.5
      vertex 9.85317 102.107 -52.5
    endloop
  endfacet
  facet normal 0 0 1
    outer loop
      vertex 16 118.18 -52.5
      vertex 7 104.18 -52.5
      vertex 8.76336 103.607 -52.5
    endloop
  endfacet
  facet normal -0 0 1
    outer loop
      vertex 1.16573e-14 118.18 -52.5
      vertex 7 104.18 -52.5
      vertex 16 118.18 -52.5
    endloop
  endfacet
  facet normal 0 0 1
    outer loop
      vertex 3.52447 94.5255 -52.5
      vertex 4.14683 100.253 -52.5
      vertex 4.14683 102.107 -52.5
    endloop
  endfacet
  facet normal 0 0 1
    outer loop
      vertex 4.14683 100.253 -52.5
      vertex 3.52447 94.5255 -52.5
      vertex 3.70611 95.0845 -52.5
    endloop
  endfacet
  facet normal 0 0 1
    outer loop
      vertex 1.16573e-14 118.18 -52.5
      vertex 3.52447 81.6955 -52.5
      vertex 3.52447 94.5255 -52.5
    endloop
  endfacet
  facet normal 0 0 1
    outer loop
      vertex 3.52447 81.6955 -52.5
      vertex 1.16573e-14 118.18 -52.5
      vertex 3.52447 62.0255 -52.5
    endloop
  endfacet
  facet normal 0 -0 1
    outer loop
      vertex 2.52447 21.5255 -52.5
      vertex 3.52447 62.0255 -52.5
      vertex 1.16573e-14 118.18 -52.5
    endloop
  endfacet
  facet normal 0 0 1
    outer loop
      vertex 4.14683 34.2529 -52.5
      vertex 2.52447 21.5255 -52.5
      vertex 2.70611 22.0845 -52.5
    endloop
  endfacet
  facet normal 0 0 1
    outer loop
      vertex 1.16573e-14 -11.82 -52.5
      vertex 2.52447 12.5255 -52.5
      vertex 2.52447 21.5255 -52.5
    endloop
  endfacet
  facet normal 0 0 1
    outer loop
      vertex 3.52447 62.0255 -52.5
      vertex 2.52447 21.5255 -52.5
      vertex 3.52447 41.5255 -52.5
    endloop
  endfacet
  facet normal 0 0 1
    outer loop
      vertex 2.52447 12.5255 -52.5
      vertex 1.16573e-14 -11.82 -52.5
      vertex 2 2.08 -52.5
    endloop
  endfacet
  facet normal 0 0 1
    outer loop
      vertex 1.16573e-14 -11.82 -52.5
      vertex 2.52447 21.5255 -52.5
      vertex 1.16573e-14 118.18 -52.5
    endloop
  endfacet
  facet normal 0 0 1
    outer loop
      vertex 4.14683 102.107 -52.5
      vertex 1.16573e-14 118.18 -52.5
      vertex 3.52447 94.5255 -52.5
    endloop
  endfacet
  facet normal 0 0 1
    outer loop
      vertex 5.23664 103.607 -52.5
      vertex 1.16573e-14 118.18 -52.5
      vertex 4.14683 102.107 -52.5
    endloop
  endfacet
  facet normal 0 0 1
    outer loop
      vertex 7 104.18 -52.5
      vertex 1.16573e-14 118.18 -52.5
      vertex 5.23664 103.607 -52.5
    endloop
  endfacet
  facet normal -0 0 1
    outer loop
      vertex 13 -7.82 -52.5
      vertex 16 -11.82 -52.5
      vertex 13 2.08 -52.5
    endloop
  endfacet
  facet normal 0 0 1
    outer loop
      vertex 1.16573e-14 -11.82 -52.5
      vertex 13 -7.82 -52.5
      vertex 2 -7.82 -52.5
    endloop
  endfacet
  facet normal 0 0 1
    outer loop
      vertex 13 -7.82 -52.5
      vertex 1.16573e-14 -11.82 -52.5
      vertex 16 -11.82 -52.5
    endloop
  endfacet
  facet normal 0 0 1
    outer loop
      vertex 2 2.08 -52.5
      vertex 1.16573e-14 -11.82 -52.5
      vertex 2 -7.82 -52.5
    endloop
  endfacet
  facet normal 0 0 1
    outer loop
      vertex 10.4755 64.0255 -52.5
      vertex 16 118.18 -52.5
      vertex 10.4755 80.1955 -52.5
    endloop
  endfacet
  facet normal -0 0 1
    outer loop
      vertex 10.4755 40.0255 -52.5
      vertex 16 -11.82 -52.5
      vertex 10.4755 64.0255 -52.5
    endloop
  endfacet
  facet normal 0 0 1
    outer loop
      vertex 16 -11.82 -52.5
      vertex 10.4755 40.0255 -52.5
      vertex 13 2.08 -52.5
    endloop
  endfacet
  facet normal 0 0 1
    outer loop
      vertex 9.85317 36.1071 -52.5
      vertex 10.4755 40.0255 -52.5
      vertex 10 39.68 -52.5
    endloop
  endfacet
  facet normal 0 0 1
    outer loop
      vertex 10.4755 40.0255 -52.5
      vertex 9.85317 36.1071 -52.5
      vertex 9.85317 34.2529 -52.5
    endloop
  endfacet
  facet normal 0 0 1
    outer loop
      vertex 10.4755 40.0255 -52.5
      vertex 9.85317 34.2529 -52.5
      vertex 13 2.08 -52.5
    endloop
  endfacet
  facet normal -0 0 1
    outer loop
      vertex 9.47553 24.5255 -52.5
      vertex 13 2.08 -52.5
      vertex 9.85317 34.2529 -52.5
    endloop
  endfacet
  facet normal -0 0 1
    outer loop
      vertex 9.47553 9.52549 -52.5
      vertex 13 2.08 -52.5
      vertex 9.47553 24.5255 -52.5
    endloop
  endfacet
  facet normal -0 0 1
    outer loop
      vertex 9 9.18 -52.5
      vertex 13 2.08 -52.5
      vertex 9.47553 9.52549 -52.5
    endloop
  endfacet
  facet normal -0 0 1
    outer loop
      vertex 6 9.18 -52.5
      vertex 13 2.08 -52.5
      vertex 9 9.18 -52.5
    endloop
  endfacet
  facet normal 0 0 1
    outer loop
      vertex 2 2.08 -52.5
      vertex 6 9.18 -52.5
      vertex 5.52447 9.52549 -52.5
    endloop
  endfacet
  facet normal 0 0 1
    outer loop
      vertex 6 9.18 -52.5
      vertex 2 2.08 -52.5
      vertex 13 2.08 -52.5
    endloop
  endfacet
  facet normal 0 0 1
    outer loop
      vertex 2 2.08 -52.5
      vertex 5.52447 9.52549 -52.5
      vertex 2.52447 12.5255 -52.5
    endloop
  endfacet
  facet normal 0 0 1
    outer loop
      vertex 10.4755 96.5255 -52.5
      vertex 9.85317 100.253 -52.5
      vertex 10.2939 97.0845 -52.5
    endloop
  endfacet
  facet normal -0 0 1
    outer loop
      vertex 8.76336 98.7529 -52.5
      vertex 10.2939 97.0845 -52.5
      vertex 9.85317 100.253 -52.5
    endloop
  endfacet
  facet normal 0 0 1
    outer loop
      vertex 6.70611 97.0845 -52.5
      vertex 8.76336 98.7529 -52.5
      vertex 7 98.18 -52.5
    endloop
  endfacet
  facet normal 0 0 1
    outer loop
      vertex 8.76336 98.7529 -52.5
      vertex 6.70611 97.0845 -52.5
      vertex 10.2939 97.0845 -52.5
    endloop
  endfacet
  facet normal 0 0 1
    outer loop
      vertex 5.23664 98.7529 -52.5
      vertex 6.70611 97.0845 -52.5
      vertex 7 98.18 -52.5
    endloop
  endfacet
  facet normal 0 0 1
    outer loop
      vertex 5.23664 98.7529 -52.5
      vertex 3.70611 95.0845 -52.5
      vertex 6.70611 97.0845 -52.5
    endloop
  endfacet
  facet normal 0 0 1
    outer loop
      vertex 3.70611 95.0845 -52.5
      vertex 5.23664 98.7529 -52.5
      vertex 4.14683 100.253 -52.5
    endloop
  endfacet
  facet normal 1 -0 0
    outer loop
      vertex 16 -11.82 -52.5
      vertex 16 118.18 -53.5
      vertex 16 118.18 -52.5
    endloop
  endfacet
  facet normal 1 0 0
    outer loop
      vertex 16 118.18 -53.5
      vertex 16 -11.82 -52.5
      vertex 16 -11.82 -53.5
    endloop
  endfacet
  facet normal 0 0 -1
    outer loop
      vertex 10.2939 97.0845 -53.5
      vertex 8.76336 98.7529 -53.5
      vertex 9.85317 100.253 -53.5
    endloop
  endfacet
  facet normal 0 0 -1
    outer loop
      vertex 6.70611 97.0845 -53.5
      vertex 8.76336 98.7529 -53.5
      vertex 10.2939 97.0845 -53.5
    endloop
  endfacet
  facet normal 0 0 -1
    outer loop
      vertex 8.76336 98.7529 -53.5
      vertex 6.70611 97.0845 -53.5
      vertex 7 98.18 -53.5
    endloop
  endfacet
  facet normal 0 0 -1
    outer loop
      vertex 6.70611 97.0845 -53.5
      vertex 5.23664 98.7529 -53.5
      vertex 7 98.18 -53.5
    endloop
  endfacet
  facet normal 0 0 -1
    outer loop
      vertex 3.52447 94.5255 -53.5
      vertex 4.14683 100.253 -53.5
      vertex 3.70611 95.0845 -53.5
    endloop
  endfacet
  facet normal -0 0 -1
    outer loop
      vertex 5.23664 98.7529 -53.5
      vertex 3.70611 95.0845 -53.5
      vertex 4.14683 100.253 -53.5
    endloop
  endfacet
  facet normal 0 0 -1
    outer loop
      vertex 3.70611 95.0845 -53.5
      vertex 5.23664 98.7529 -53.5
      vertex 6.70611 97.0845 -53.5
    endloop
  endfacet
  facet normal 0 0 -1
    outer loop
      vertex 8.76336 71.607 -53.5
      vertex 9.85317 75.253 -53.5
      vertex 9.85317 70.107 -53.5
    endloop
  endfacet
  facet normal 0 0 -1
    outer loop
      vertex 8.76336 71.607 -53.5
      vertex 8.76336 73.753 -53.5
      vertex 9.85317 75.253 -53.5
    endloop
  endfacet
  facet normal 0 0 -1
    outer loop
      vertex 7 72.18 -53.5
      vertex 8.76336 73.753 -53.5
      vertex 8.76336 71.607 -53.5
    endloop
  endfacet
  facet normal 0 0 -1
    outer loop
      vertex 7 72.18 -53.5
      vertex 7 73.18 -53.5
      vertex 8.76336 73.753 -53.5
    endloop
  endfacet
  facet normal 0 0 -1
    outer loop
      vertex 5.23664 71.607 -53.5
      vertex 7 73.18 -53.5
      vertex 7 72.18 -53.5
    endloop
  endfacet
  facet normal 0 0 -1
    outer loop
      vertex 5.23664 71.607 -53.5
      vertex 5.23664 73.753 -53.5
      vertex 7 73.18 -53.5
    endloop
  endfacet
  facet normal 0 0 -1
    outer loop
      vertex 4.14683 70.107 -53.5
      vertex 5.23664 73.753 -53.5
      vertex 5.23664 71.607 -53.5
    endloop
  endfacet
  facet normal -0 0 -1
    outer loop
      vertex 5.23664 73.753 -53.5
      vertex 4.14683 70.107 -53.5
      vertex 4.14683 75.253 -53.5
    endloop
  endfacet
  facet normal 0 0 -1
    outer loop
      vertex 9.85317 68.2529 -53.5
      vertex 10.4755 64.0255 -53.5
      vertex 10.2939 64.5845 -53.5
    endloop
  endfacet
  facet normal 0 0 -1
    outer loop
      vertex 10.4755 64.0255 -53.5
      vertex 9.85317 70.107 -53.5
      vertex 10.4755 80.1955 -53.5
    endloop
  endfacet
  facet normal 0 0 -1
    outer loop
      vertex 10.4755 64.0255 -53.5
      vertex 9.85317 68.2529 -53.5
      vertex 9.85317 70.107 -53.5
    endloop
  endfacet
  facet normal 0 0 -1
    outer loop
      vertex 10.2939 64.5845 -53.5
      vertex 8.76336 66.7529 -53.5
      vertex 9.85317 68.2529 -53.5
    endloop
  endfacet
  facet normal 0 0 -1
    outer loop
      vertex 6.70611 64.5845 -53.5
      vertex 8.76336 66.7529 -53.5
      vertex 10.2939 64.5845 -53.5
    endloop
  endfacet
  facet normal 0 0 -1
    outer loop
      vertex 8.76336 66.7529 -53.5
      vertex 6.70611 64.5845 -53.5
      vertex 7 66.18 -53.5
    endloop
  endfacet
  facet normal 0 0 -1
    outer loop
      vertex 6.70611 64.5845 -53.5
      vertex 5.23664 66.7529 -53.5
      vertex 7 66.18 -53.5
    endloop
  endfacet
  facet normal 0 0 -1
    outer loop
      vertex 3.70611 62.5845 -53.5
      vertex 5.23664 66.7529 -53.5
      vertex 6.70611 64.5845 -53.5
    endloop
  endfacet
  facet normal 0 0 -1
    outer loop
      vertex 3.52447 62.0255 -53.5
      vertex 4.14683 70.107 -53.5
      vertex 4.14683 68.2529 -53.5
    endloop
  endfacet
  facet normal 0 0 -1
    outer loop
      vertex 4.14683 70.107 -53.5
      vertex 3.52447 81.6955 -53.5
      vertex 4.14683 75.253 -53.5
    endloop
  endfacet
  facet normal 0 0 -1
    outer loop
      vertex 4.14683 75.253 -53.5
      vertex 3.52447 81.6955 -53.5
      vertex 4.14683 77.107 -53.5
    endloop
  endfacet
  facet normal -0 0 -1
    outer loop
      vertex 5.23664 66.7529 -53.5
      vertex 3.70611 62.5845 -53.5
      vertex 4.14683 68.2529 -53.5
    endloop
  endfacet
  facet normal 0 0 -1
    outer loop
      vertex 3.52447 62.0255 -53.5
      vertex 4.14683 68.2529 -53.5
      vertex 3.70611 62.5845 -53.5
    endloop
  endfacet
  facet normal -0 0 -1
    outer loop
      vertex 4.14683 70.107 -53.5
      vertex 3.52447 62.0255 -53.5
      vertex 3.52447 81.6955 -53.5
    endloop
  endfacet
  facet normal 0 0 -1
    outer loop
      vertex 4.14683 77.107 -53.5
      vertex 3.52447 81.6955 -53.5
      vertex 4 81.35 -53.5
    endloop
  endfacet
  facet normal 0 0 -1
    outer loop
      vertex 9.85317 34.2529 -53.5
      vertex 10.4755 40.0255 -53.5
      vertex 13 2.08 -53.5
    endloop
  endfacet
  facet normal 0 0 -1
    outer loop
      vertex 9.85317 36.1071 -53.5
      vertex 10.4755 40.0255 -53.5
      vertex 9.85317 34.2529 -53.5
    endloop
  endfacet
  facet normal 0 0 -1
    outer loop
      vertex 9.47553 24.5255 -53.5
      vertex 13 2.08 -53.5
      vertex 9.47553 9.52549 -53.5
    endloop
  endfacet
  facet normal 0 0 -1
    outer loop
      vertex 13 2.08 -53.5
      vertex 9 9.18 -53.5
      vertex 9.47553 9.52549 -53.5
    endloop
  endfacet
  facet normal 0 0 -1
    outer loop
      vertex 13 2.08 -53.5
      vertex 6 9.18 -53.5
      vertex 9 9.18 -53.5
    endloop
  endfacet
  facet normal 0 0 -1
    outer loop
      vertex 2 2.08 -53.5
      vertex 6 9.18 -53.5
      vertex 13 2.08 -53.5
    endloop
  endfacet
  facet normal 0 0 -1
    outer loop
      vertex 1.18794e-14 -11.82 -53.5
      vertex 2.52447 12.5255 -53.5
      vertex 2 2.08 -53.5
    endloop
  endfacet
  facet normal -0 0 -1
    outer loop
      vertex 5.52447 9.52549 -53.5
      vertex 2 2.08 -53.5
      vertex 2.52447 12.5255 -53.5
    endloop
  endfacet
  facet normal -0 0 -1
    outer loop
      vertex 6 9.18 -53.5
      vertex 2 2.08 -53.5
      vertex 5.52447 9.52549 -53.5
    endloop
  endfacet
  facet normal 0 0 -1
    outer loop
      vertex 13 2.08 -53.5
      vertex 16 -11.82 -53.5
      vertex 13 -7.82 -53.5
    endloop
  endfacet
  facet normal 0 0 -1
    outer loop
      vertex 1.18794e-14 -11.82 -53.5
      vertex 13 -7.82 -53.5
      vertex 16 -11.82 -53.5
    endloop
  endfacet
  facet normal -0 0 -1
    outer loop
      vertex 2 -7.82 -53.5
      vertex 1.18794e-14 -11.82 -53.5
      vertex 2 2.08 -53.5
    endloop
  endfacet
  facet normal -0 0 -1
    outer loop
      vertex 13 -7.82 -53.5
      vertex 1.18794e-14 -11.82 -53.5
      vertex 2 -7.82 -53.5
    endloop
  endfacet
  facet normal 0 0 -1
    outer loop
      vertex 10.4755 40.0255 -53.5
      vertex 16 -11.82 -53.5
      vertex 13 2.08 -53.5
    endloop
  endfacet
  facet normal 0 0 -1
    outer loop
      vertex 16 -11.82 -53.5
      vertex 10.4755 40.0255 -53.5
      vertex 16 118.18 -53.5
    endloop
  endfacet
  facet normal 0 0 -1
    outer loop
      vertex 10.4755 64.0255 -53.5
      vertex 16 118.18 -53.5
      vertex 10.4755 40.0255 -53.5
    endloop
  endfacet
  facet normal 0 0 -1
    outer loop
      vertex 10.4755 80.1955 -53.5
      vertex 16 118.18 -53.5
      vertex 10.4755 64.0255 -53.5
    endloop
  endfacet
  facet normal 0 0 -1
    outer loop
      vertex 10.4755 96.5255 -53.5
      vertex 16 118.18 -53.5
      vertex 10.4755 80.1955 -53.5
    endloop
  endfacet
  facet normal 0 0 -1
    outer loop
      vertex 9.85317 100.253 -53.5
      vertex 10.4755 96.5255 -53.5
      vertex 10.2939 97.0845 -53.5
    endloop
  endfacet
  facet normal 0 0 -1
    outer loop
      vertex 10.4755 96.5255 -53.5
      vertex 9.85317 100.253 -53.5
      vertex 9.85317 102.107 -53.5
    endloop
  endfacet
  facet normal 0 0 -1
    outer loop
      vertex 10.4755 96.5255 -53.5
      vertex 9.85317 102.107 -53.5
      vertex 16 118.18 -53.5
    endloop
  endfacet
  facet normal 0 0 -1
    outer loop
      vertex 8.76336 103.607 -53.5
      vertex 16 118.18 -53.5
      vertex 9.85317 102.107 -53.5
    endloop
  endfacet
  facet normal 0 0 -1
    outer loop
      vertex 7 104.18 -53.5
      vertex 16 118.18 -53.5
      vertex 8.76336 103.607 -53.5
    endloop
  endfacet
  facet normal 0 0 -1
    outer loop
      vertex 1.18794e-14 118.18 -53.5
      vertex 7 104.18 -53.5
      vertex 5.23664 103.607 -53.5
    endloop
  endfacet
  facet normal -0 0 -1
    outer loop
      vertex 4.14683 100.253 -53.5
      vertex 3.52447 94.5255 -53.5
      vertex 4.14683 102.107 -53.5
    endloop
  endfacet
  facet normal 0 0 -1
    outer loop
      vertex 3.52447 62.0255 -53.5
      vertex 1.18794e-14 118.18 -53.5
      vertex 3.52447 81.6955 -53.5
    endloop
  endfacet
  facet normal -0 0 -1
    outer loop
      vertex 2.52447 12.5255 -53.5
      vertex 1.18794e-14 -11.82 -53.5
      vertex 2.52447 21.5255 -53.5
    endloop
  endfacet
  facet normal -0 0 -1
    outer loop
      vertex 2.52447 21.5255 -53.5
      vertex 1.18794e-14 -11.82 -53.5
      vertex 1.18794e-14 118.18 -53.5
    endloop
  endfacet
  facet normal 0 0 -1
    outer loop
      vertex 7 104.18 -53.5
      vertex 1.18794e-14 118.18 -53.5
      vertex 16 118.18 -53.5
    endloop
  endfacet
  facet normal 0 0 -1
    outer loop
      vertex 4.14683 102.107 -53.5
      vertex 1.18794e-14 118.18 -53.5
      vertex 5.23664 103.607 -53.5
    endloop
  endfacet
  facet normal 0 0 -1
    outer loop
      vertex 3.52447 94.5255 -53.5
      vertex 1.18794e-14 118.18 -53.5
      vertex 4.14683 102.107 -53.5
    endloop
  endfacet
  facet normal 0 0 -1
    outer loop
      vertex 3.52447 81.6955 -53.5
      vertex 1.18794e-14 118.18 -53.5
      vertex 3.52447 94.5255 -53.5
    endloop
  endfacet
  facet normal 0 0 -1
    outer loop
      vertex 10.4755 40.0255 -53.5
      vertex 9.85317 36.1071 -53.5
      vertex 10 39.68 -53.5
    endloop
  endfacet
  facet normal 0 0 -1
    outer loop
      vertex 8.76336 37.6071 -53.5
      vertex 10 39.68 -53.5
      vertex 9.85317 36.1071 -53.5
    endloop
  endfacet
  facet normal 0 0 -1
    outer loop
      vertex 7 39.68 -53.5
      vertex 8.76336 37.6071 -53.5
      vertex 7 38.18 -53.5
    endloop
  endfacet
  facet normal 0 0 -1
    outer loop
      vertex 8.76336 37.6071 -53.5
      vertex 7 39.68 -53.5
      vertex 10 39.68 -53.5
    endloop
  endfacet
  facet normal 0 0 -1
    outer loop
      vertex 5.23664 37.6071 -53.5
      vertex 7 39.68 -53.5
      vertex 7 38.18 -53.5
    endloop
  endfacet
  facet normal 0 0 -1
    outer loop
      vertex 5.23664 37.6071 -53.5
      vertex 4 41.18 -53.5
      vertex 7 39.68 -53.5
    endloop
  endfacet
  facet normal 0 0 -1
    outer loop
      vertex 4 41.18 -53.5
      vertex 5.23664 37.6071 -53.5
      vertex 4.14683 36.1071 -53.5
    endloop
  endfacet
  facet normal 0 0 -1
    outer loop
      vertex 10.4755 80.1955 -53.5
      vertex 9.85317 70.107 -53.5
      vertex 9.85317 75.253 -53.5
    endloop
  endfacet
  facet normal 0 0 -1
    outer loop
      vertex 9.85317 77.107 -53.5
      vertex 10.4755 80.1955 -53.5
      vertex 9.85317 75.253 -53.5
    endloop
  endfacet
  facet normal 0 0 -1
    outer loop
      vertex 10.4755 80.1955 -53.5
      vertex 9.85317 77.107 -53.5
      vertex 10 79.85 -53.5
    endloop
  endfacet
  facet normal 0 0 -1
    outer loop
      vertex 8.76336 78.607 -53.5
      vertex 10 79.85 -53.5
      vertex 9.85317 77.107 -53.5
    endloop
  endfacet
  facet normal 0 0 -1
    outer loop
      vertex 7 79.85 -53.5
      vertex 8.76336 78.607 -53.5
      vertex 7 79.18 -53.5
    endloop
  endfacet
  facet normal 0 0 -1
    outer loop
      vertex 8.76336 78.607 -53.5
      vertex 7 79.85 -53.5
      vertex 10 79.85 -53.5
    endloop
  endfacet
  facet normal 0 0 -1
    outer loop
      vertex 5.23664 78.607 -53.5
      vertex 7 79.85 -53.5
      vertex 7 79.18 -53.5
    endloop
  endfacet
  facet normal 0 0 -1
    outer loop
      vertex 5.23664 78.607 -53.5
      vertex 4 81.35 -53.5
      vertex 7 79.85 -53.5
    endloop
  endfacet
  facet normal 0 0 -1
    outer loop
      vertex 4 81.35 -53.5
      vertex 5.23664 78.607 -53.5
      vertex 4.14683 77.107 -53.5
    endloop
  endfacet
  facet normal 0 0 -1
    outer loop
      vertex 13 2.08 -53.5
      vertex 9.47553 24.5255 -53.5
      vertex 9.85317 34.2529 -53.5
    endloop
  endfacet
  facet normal 0 0 -1
    outer loop
      vertex 9.29389 25.0845 -53.5
      vertex 9.85317 34.2529 -53.5
      vertex 9.47553 24.5255 -53.5
    endloop
  endfacet
  facet normal 0 0 -1
    outer loop
      vertex 9.29389 25.0845 -53.5
      vertex 8.76336 32.7529 -53.5
      vertex 9.85317 34.2529 -53.5
    endloop
  endfacet
  facet normal 0 0 -1
    outer loop
      vertex 9.29389 25.0845 -53.5
      vertex 7 32.18 -53.5
      vertex 8.76336 32.7529 -53.5
    endloop
  endfacet
  facet normal 0 0 -1
    outer loop
      vertex 5.70611 25.0845 -53.5
      vertex 7 32.18 -53.5
      vertex 9.29389 25.0845 -53.5
    endloop
  endfacet
  facet normal 0 0 -1
    outer loop
      vertex 5.70611 25.0845 -53.5
      vertex 5.23664 32.7529 -53.5
      vertex 7 32.18 -53.5
    endloop
  endfacet
  facet normal 0 0 -1
    outer loop
      vertex 2.70611 22.0845 -53.5
      vertex 5.23664 32.7529 -53.5
      vertex 5.70611 25.0845 -53.5
    endloop
  endfacet
  facet normal 0 0 -1
    outer loop
      vertex 3.52447 41.5255 -53.5
      vertex 4.14683 36.1071 -53.5
      vertex 4.14683 34.2529 -53.5
    endloop
  endfacet
  facet normal 0 0 -1
    outer loop
      vertex 4.14683 36.1071 -53.5
      vertex 3.52447 41.5255 -53.5
      vertex 4 41.18 -53.5
    endloop
  endfacet
  facet normal -0 0 -1
    outer loop
      vertex 4.14683 34.2529 -53.5
      vertex 2.52447 21.5255 -53.5
      vertex 3.52447 41.5255 -53.5
    endloop
  endfacet
  facet normal -0 0 -1
    outer loop
      vertex 3.52447 41.5255 -53.5
      vertex 2.52447 21.5255 -53.5
      vertex 3.52447 62.0255 -53.5
    endloop
  endfacet
  facet normal 0 0 -1
    outer loop
      vertex 1.18794e-14 118.18 -53.5
      vertex 3.52447 62.0255 -53.5
      vertex 2.52447 21.5255 -53.5
    endloop
  endfacet
  facet normal 0 0 -1
    outer loop
      vertex 2.52447 21.5255 -53.5
      vertex 4.14683 34.2529 -53.5
      vertex 2.70611 22.0845 -53.5
    endloop
  endfacet
  facet normal -0 0 -1
    outer loop
      vertex 5.23664 32.7529 -53.5
      vertex 2.70611 22.0845 -53.5
      vertex 4.14683 34.2529 -53.5
    endloop
  endfacet
  facet normal 0 1 -0
    outer loop
      vertex 16 118.18 -53.5
      vertex 1.16573e-14 118.18 -52.5
      vertex 16 118.18 -52.5
    endloop
  endfacet
  facet normal 0 1 0
    outer loop
      vertex 1.16573e-14 118.18 -52.5
      vertex 16 118.18 -53.5
      vertex 1.18794e-14 118.18 -53.5
    endloop
  endfacet
  facet normal -1 0 -2.22045e-16
    outer loop
      vertex 1.18794e-14 -11.82 -53.5
      vertex 1.16573e-14 118.18 -52.5
      vertex 1.18794e-14 118.18 -53.5
    endloop
  endfacet
  facet normal -1 -0 -2.22045e-16
    outer loop
      vertex 1.16573e-14 118.18 -52.5
      vertex 1.18794e-14 -11.82 -53.5
      vertex 1.16573e-14 -11.82 -52.5
    endloop
  endfacet
  facet normal 0 -1 0
    outer loop
      vertex 1.18794e-14 -11.82 -53.5
      vertex 16 -11.82 -52.5
      vertex 1.16573e-14 -11.82 -52.5
    endloop
  endfacet
  facet normal 0 -1 -0
    outer loop
      vertex 16 -11.82 -52.5
      vertex 1.18794e-14 -11.82 -53.5
      vertex 16 -11.82 -53.5
    endloop
  endfacet
endsolid OpenSCAD_Model
