solid OpenSCAD_Model
  facet normal -1 0 0
    outer loop
      vertex 32 -11.82 0
      vertex 32 0 1
      vertex 32 0 0
    endloop
  endfacet
  facet normal -1 -0 0
    outer loop
      vertex 32 0 1
      vertex 32 -11.82 0
      vertex 32 -11.82 1
    endloop
  endfacet
  facet normal -1 0 0
    outer loop
      vertex 32 117 0
      vertex 32 131.18 1
      vertex 32 131.18 0
    endloop
  endfacet
  facet normal -1 -0 0
    outer loop
      vertex 32 131.18 1
      vertex 32 117 0
      vertex 32 117 1
    endloop
  endfacet
  facet normal -0 0 1
    outer loop
      vertex 30.9635 0.0734148 1
      vertex 32 0 1
      vertex 32 1.5 1
    endloop
  endfacet
  facet normal 0 0 1
    outer loop
      vertex 30.9635 0.0734148 1
      vertex 29 0 1
      vertex 32 0 1
    endloop
  endfacet
  facet normal 0 0 1
    outer loop
      vertex 29.2865 0.618321 1
      vertex 29 0 1
      vertex 30.9635 0.0734148 1
    endloop
  endfacet
  facet normal 0 0 1
    outer loop
      vertex 29.2865 2.38168 1
      vertex 29 0 1
      vertex 29.2865 0.618321 1
    endloop
  endfacet
  facet normal -0 0 1
    outer loop
      vertex 30.9635 114.073 1
      vertex 32 1.5 1
      vertex 32 115.5 1
    endloop
  endfacet
  facet normal 0 0 1
    outer loop
      vertex 30.9635 114.073 1
      vertex 30.9635 2.92658 1
      vertex 32 1.5 1
    endloop
  endfacet
  facet normal 0 0 1
    outer loop
      vertex 29.2865 114.618 1
      vertex 30.9635 2.92658 1
      vertex 30.9635 114.073 1
    endloop
  endfacet
  facet normal 0 0 1
    outer loop
      vertex 30.9635 2.92658 1
      vertex 29.2865 114.618 1
      vertex 29.2865 2.38168 1
    endloop
  endfacet
  facet normal 0 0 1
    outer loop
      vertex 32 117 1
      vertex 30.9635 116.927 1
      vertex 32 115.5 1
    endloop
  endfacet
  facet normal 0 0 1
    outer loop
      vertex 29 117 1
      vertex 29.2865 114.618 1
      vertex 29.2865 116.382 1
    endloop
  endfacet
  facet normal 0 0 1
    outer loop
      vertex 29.2865 114.618 1
      vertex 29 117 1
      vertex 29.2865 2.38168 1
    endloop
  endfacet
  facet normal 0 0 1
    outer loop
      vertex 29 0 1
      vertex 29.2865 2.38168 1
      vertex 29 117 1
    endloop
  endfacet
  facet normal 0 0 1
    outer loop
      vertex 30.9635 116.927 1
      vertex 29 117 1
      vertex 29.2865 116.382 1
    endloop
  endfacet
  facet normal -0 0 1
    outer loop
      vertex 29 117 1
      vertex 30.9635 116.927 1
      vertex 32 117 1
    endloop
  endfacet
  facet normal -0 0 1
    outer loop
      vertex 52.28 130.18 1
      vertex 53.28 39.2514 1
      vertex 53.28 131.18 1
    endloop
  endfacet
  facet normal 0 0 1
    outer loop
      vertex 52.28 -10.82 1
      vertex 52.5 39.2514 1
      vertex 52.28 130.18 1
    endloop
  endfacet
  facet normal 0 0 1
    outer loop
      vertex 53.28 39.2514 1
      vertex 52.28 130.18 1
      vertex 52.5 39.2514 1
    endloop
  endfacet
  facet normal 0 0 1
    outer loop
      vertex 53.28 131.18 1
      vertex 33 130.18 1
      vertex 52.28 130.18 1
    endloop
  endfacet
  facet normal 0 0 1
    outer loop
      vertex 32 117 1
      vertex 33 130.18 1
      vertex 32 131.18 1
    endloop
  endfacet
  facet normal -0 0 1
    outer loop
      vertex 32 131.18 1
      vertex 33 130.18 1
      vertex 53.28 131.18 1
    endloop
  endfacet
  facet normal 0 0 1
    outer loop
      vertex 52.5 39.2514 1
      vertex 52.28 -10.82 1
      vertex 52.5 -11.82 1
    endloop
  endfacet
  facet normal -0 0 1
    outer loop
      vertex 33 -10.82 1
      vertex 52.5 -11.82 1
      vertex 52.28 -10.82 1
    endloop
  endfacet
  facet normal 0 0 1
    outer loop
      vertex 32 115.5 1
      vertex 33 130.18 1
      vertex 32 117 1
    endloop
  endfacet
  facet normal 0 0 1
    outer loop
      vertex 33 130.18 1
      vertex 32 115.5 1
      vertex 33 -10.82 1
    endloop
  endfacet
  facet normal -0 0 1
    outer loop
      vertex 32 1.5 1
      vertex 33 -10.82 1
      vertex 32 115.5 1
    endloop
  endfacet
  facet normal -0 0 1
    outer loop
      vertex 32 0 1
      vertex 33 -10.82 1
      vertex 32 1.5 1
    endloop
  endfacet
  facet normal 0 0 1
    outer loop
      vertex 33 -10.82 1
      vertex 32 -11.82 1
      vertex 52.5 -11.82 1
    endloop
  endfacet
  facet normal 0 0 1
    outer loop
      vertex 32 -11.82 1
      vertex 33 -10.82 1
      vertex 32 0 1
    endloop
  endfacet
  facet normal 1 -0 0
    outer loop
      vertex 53.28 39.2514 1
      vertex 53.28 131.18 0
      vertex 53.28 131.18 1
    endloop
  endfacet
  facet normal 1 0 0
    outer loop
      vertex 53.28 131.18 0
      vertex 53.28 39.2514 1
      vertex 53.28 39.2514 0
    endloop
  endfacet
  facet normal 0 0 -1
    outer loop
      vertex 29 0 0
      vertex 32 117 0
      vertex 32 0 0
    endloop
  endfacet
  facet normal -0 0 -1
    outer loop
      vertex 32 117 0
      vertex 29 0 0
      vertex 29 117 0
    endloop
  endfacet
  facet normal 0 0 -1
    outer loop
      vertex 52.28 -10.82 0
      vertex 54.5 39.2514 0
      vertex 54.5 -11.82 0
    endloop
  endfacet
  facet normal 0 0 -1
    outer loop
      vertex 52.28 130.18 0
      vertex 53.28 39.2514 0
      vertex 52.28 -10.82 0
    endloop
  endfacet
  facet normal -0 0 -1
    outer loop
      vertex 54.5 39.2514 0
      vertex 52.28 -10.82 0
      vertex 53.28 39.2514 0
    endloop
  endfacet
  facet normal 0 0 -1
    outer loop
      vertex 32 -11.82 0
      vertex 52.28 -10.82 0
      vertex 54.5 -11.82 0
    endloop
  endfacet
  facet normal 0 0 -1
    outer loop
      vertex 32 0 0
      vertex 33 -10.82 0
      vertex 32 -11.82 0
    endloop
  endfacet
  facet normal -0 0 -1
    outer loop
      vertex 52.28 -10.82 0
      vertex 32 -11.82 0
      vertex 33 -10.82 0
    endloop
  endfacet
  facet normal 0 0 -1
    outer loop
      vertex 53.28 39.2514 0
      vertex 52.28 130.18 0
      vertex 53.28 131.18 0
    endloop
  endfacet
  facet normal 0 0 -1
    outer loop
      vertex 33 130.18 0
      vertex 53.28 131.18 0
      vertex 52.28 130.18 0
    endloop
  endfacet
  facet normal 0 0 -1
    outer loop
      vertex 32 117 0
      vertex 33 -10.82 0
      vertex 32 0 0
    endloop
  endfacet
  facet normal 0 0 -1
    outer loop
      vertex 33 -10.82 0
      vertex 32 117 0
      vertex 33 130.18 0
    endloop
  endfacet
  facet normal 0 0 -1
    outer loop
      vertex 33 130.18 0
      vertex 32 131.18 0
      vertex 53.28 131.18 0
    endloop
  endfacet
  facet normal 0 0 -1
    outer loop
      vertex 32 131.18 0
      vertex 33 130.18 0
      vertex 32 117 0
    endloop
  endfacet
  facet normal 0 -1 0
    outer loop
      vertex 32 -11.82 1
      vertex 32 -11.82 0
      vertex 52.5 -11.82 1
    endloop
  endfacet
  facet normal 0 -1 0
    outer loop
      vertex 52.5 -11.82 1
      vertex 54.5 -11.82 16
      vertex 52.5 -11.82 16
    endloop
  endfacet
  facet normal 0 -1 0
    outer loop
      vertex 52.5 -11.82 1
      vertex 54.5 -11.82 0
      vertex 54.5 -11.82 16
    endloop
  endfacet
  facet normal 0 -1 0
    outer loop
      vertex 54.5 -11.82 0
      vertex 52.5 -11.82 1
      vertex 32 -11.82 0
    endloop
  endfacet
  facet normal 0 1 -0
    outer loop
      vertex 53.28 131.18 0
      vertex 32 131.18 1
      vertex 53.28 131.18 1
    endloop
  endfacet
  facet normal 0 1 0
    outer loop
      vertex 32 131.18 1
      vertex 53.28 131.18 0
      vertex 32 131.18 0
    endloop
  endfacet
  facet normal 1 -0 0
    outer loop
      vertex 33 -10.82 1
      vertex 33 130.18 0
      vertex 33 130.18 1
    endloop
  endfacet
  facet normal 1 0 0
    outer loop
      vertex 33 130.18 0
      vertex 33 -10.82 1
      vertex 33 -10.82 0
    endloop
  endfacet
  facet normal -1 0 0
    outer loop
      vertex 52.28 -10.82 0
      vertex 52.28 130.18 1
      vertex 52.28 130.18 0
    endloop
  endfacet
  facet normal -1 -0 0
    outer loop
      vertex 52.28 130.18 1
      vertex 52.28 -10.82 0
      vertex 52.28 -10.82 1
    endloop
  endfacet
  facet normal 0 1 -0
    outer loop
      vertex 52.28 -10.82 0
      vertex 33 -10.82 1
      vertex 52.28 -10.82 1
    endloop
  endfacet
  facet normal 0 1 0
    outer loop
      vertex 33 -10.82 1
      vertex 52.28 -10.82 0
      vertex 33 -10.82 0
    endloop
  endfacet
  facet normal 0 -1 0
    outer loop
      vertex 33 130.18 0
      vertex 52.28 130.18 1
      vertex 33 130.18 1
    endloop
  endfacet
  facet normal 0 -1 -0
    outer loop
      vertex 52.28 130.18 1
      vertex 33 130.18 0
      vertex 52.28 130.18 0
    endloop
  endfacet
  facet normal 0 0 -1
    outer loop
      vertex 52.5 -8.82 13
      vertex 54.5 0.0799996 13
      vertex 54.5 -8.82 13
    endloop
  endfacet
  facet normal -0 0 -1
    outer loop
      vertex 54.5 0.0799996 13
      vertex 52.5 -8.82 13
      vertex 52.5 0.0799996 13
    endloop
  endfacet
  facet normal 0 -1 0
    outer loop
      vertex 52.5 0.0799996 2
      vertex 54.5 0.0799996 13
      vertex 52.5 0.0799996 13
    endloop
  endfacet
  facet normal 0 -1 -0
    outer loop
      vertex 54.5 0.0799996 13
      vertex 52.5 0.0799996 2
      vertex 54.5 0.0799996 2
    endloop
  endfacet
  facet normal -0 0 1
    outer loop
      vertex 52.5 0.0799996 2
      vertex 54.5 -8.82 2
      vertex 54.5 0.0799996 2
    endloop
  endfacet
  facet normal 0 0 1
    outer loop
      vertex 54.5 -8.82 2
      vertex 52.5 0.0799996 2
      vertex 52.5 -8.82 2
    endloop
  endfacet
  facet normal 0 1 -0
    outer loop
      vertex 54.5 -8.82 2
      vertex 52.5 -8.82 13
      vertex 54.5 -8.82 13
    endloop
  endfacet
  facet normal 0 1 0
    outer loop
      vertex 52.5 -8.82 13
      vertex 54.5 -8.82 2
      vertex 52.5 -8.82 2
    endloop
  endfacet
  facet normal 0 -0.309018 0.951056
    outer loop
      vertex 52.5 21.0845 2.70611
      vertex 54.5 20.5255 2.52447
      vertex 54.5 21.0845 2.70611
    endloop
  endfacet
  facet normal 0 -0.309018 0.951056
    outer loop
      vertex 54.5 20.5255 2.52447
      vertex 52.5 21.0845 2.70611
      vertex 52.5 20.5255 2.52447
    endloop
  endfacet
  facet normal 0 -1 0
    outer loop
      vertex 52.5 24.0845 5.70611
      vertex 54.5 24.0845 9.29389
      vertex 52.5 24.0845 9.29389
    endloop
  endfacet
  facet normal 0 -1 -0
    outer loop
      vertex 54.5 24.0845 9.29389
      vertex 52.5 24.0845 5.70611
      vertex 54.5 24.0845 5.70611
    endloop
  endfacet
  facet normal 0 0.809017 0.587786
    outer loop
      vertex 54.5 8.52549 5.52447
      vertex 52.5 8.18 6
      vertex 54.5 8.18 6
    endloop
  endfacet
  facet normal 0 0.809017 0.587786
    outer loop
      vertex 52.5 8.18 6
      vertex 54.5 8.52549 5.52447
      vertex 52.5 8.52549 5.52447
    endloop
  endfacet
  facet normal 0 0 -1
    outer loop
      vertex 52.5 8.52549 9.47553
      vertex 54.5 23.5255 9.47553
      vertex 54.5 8.52549 9.47553
    endloop
  endfacet
  facet normal -0 0 -1
    outer loop
      vertex 54.5 23.5255 9.47553
      vertex 52.5 8.52549 9.47553
      vertex 52.5 23.5255 9.47553
    endloop
  endfacet
  facet normal -0 0 1
    outer loop
      vertex 52.5 20.5255 2.52447
      vertex 54.5 11.5255 2.52447
      vertex 54.5 20.5255 2.52447
    endloop
  endfacet
  facet normal 0 0 1
    outer loop
      vertex 54.5 11.5255 2.52447
      vertex 52.5 20.5255 2.52447
      vertex 52.5 11.5255 2.52447
    endloop
  endfacet
  facet normal 0 -0.309018 -0.951056
    outer loop
      vertex 52.5 23.5255 9.47553
      vertex 54.5 24.0845 9.29389
      vertex 54.5 23.5255 9.47553
    endloop
  endfacet
  facet normal -0 -0.309018 -0.951056
    outer loop
      vertex 54.5 24.0845 9.29389
      vertex 52.5 23.5255 9.47553
      vertex 52.5 24.0845 9.29389
    endloop
  endfacet
  facet normal 0 -0.707107 0.707107
    outer loop
      vertex 52.5 21.0845 2.70611
      vertex 54.5 24.0845 5.70611
      vertex 52.5 24.0845 5.70611
    endloop
  endfacet
  facet normal 0 -0.707107 0.707107
    outer loop
      vertex 54.5 24.0845 5.70611
      vertex 52.5 21.0845 2.70611
      vertex 54.5 21.0845 2.70611
    endloop
  endfacet
  facet normal 0 0.707107 0.707107
    outer loop
      vertex 54.5 11.5255 2.52447
      vertex 52.5 8.52549 5.52447
      vertex 54.5 8.52549 5.52447
    endloop
  endfacet
  facet normal 0 0.707107 0.707107
    outer loop
      vertex 52.5 8.52549 5.52447
      vertex 54.5 11.5255 2.52447
      vertex 52.5 11.5255 2.52447
    endloop
  endfacet
  facet normal 0 1 -0
    outer loop
      vertex 54.5 8.18 6
      vertex 52.5 8.18 9
      vertex 54.5 8.18 9
    endloop
  endfacet
  facet normal 0 1 0
    outer loop
      vertex 52.5 8.18 9
      vertex 54.5 8.18 6
      vertex 52.5 8.18 6
    endloop
  endfacet
  facet normal 0 0.809017 -0.587785
    outer loop
      vertex 54.5 8.18 9
      vertex 52.5 8.52549 9.47553
      vertex 54.5 8.52549 9.47553
    endloop
  endfacet
  facet normal 0 0.809017 -0.587785
    outer loop
      vertex 52.5 8.52549 9.47553
      vertex 54.5 8.18 9
      vertex 52.5 8.18 9
    endloop
  endfacet
  facet normal 0 0.939693 0.342019
    outer loop
      vertex 54.5 33.0734 9.23233
      vertex 52.5 32.43 11
      vertex 54.5 32.43 11
    endloop
  endfacet
  facet normal 0 0.939693 0.342019
    outer loop
      vertex 52.5 32.43 11
      vertex 54.5 33.0734 9.23233
      vertex 52.5 33.0734 9.23233
    endloop
  endfacet
  facet normal 0 -0.173648 0.984808
    outer loop
      vertex 52.5 36.555 8.61843
      vertex 54.5 34.7025 8.29178
      vertex 54.5 36.555 8.61843
    endloop
  endfacet
  facet normal 0 -0.173648 0.984808
    outer loop
      vertex 54.5 34.7025 8.29178
      vertex 52.5 36.555 8.61843
      vertex 52.5 34.7025 8.29178
    endloop
  endfacet
  facet normal -0 0.5 0.866026
    outer loop
      vertex 52.5 34.7025 8.29178
      vertex 54.5 33.0734 9.23233
      vertex 54.5 34.7025 8.29178
    endloop
  endfacet
  facet normal 0 0.5 0.866026
    outer loop
      vertex 54.5 33.0734 9.23233
      vertex 52.5 34.7025 8.29178
      vertex 52.5 33.0734 9.23233
    endloop
  endfacet
  facet normal 0 0.5 -0.866026
    outer loop
      vertex 52.5 33.0734 12.7677
      vertex 54.5 34.7025 13.7082
      vertex 54.5 33.0734 12.7677
    endloop
  endfacet
  facet normal 0 0.5 -0.866026
    outer loop
      vertex 54.5 34.7025 13.7082
      vertex 52.5 33.0734 12.7677
      vertex 52.5 34.7025 13.7082
    endloop
  endfacet
  facet normal 0 -0.766045 0.642787
    outer loop
      vertex 52.5 36.555 8.61843
      vertex 54.5 37.7642 10.0594
      vertex 52.5 37.7642 10.0594
    endloop
  endfacet
  facet normal 0 -0.766045 0.642787
    outer loop
      vertex 54.5 37.7642 10.0594
      vertex 52.5 36.555 8.61843
      vertex 54.5 36.555 8.61843
    endloop
  endfacet
  facet normal 0 0.939693 -0.342019
    outer loop
      vertex 54.5 32.43 11
      vertex 52.5 33.0734 12.7677
      vertex 54.5 33.0734 12.7677
    endloop
  endfacet
  facet normal 0 0.939693 -0.342019
    outer loop
      vertex 52.5 33.0734 12.7677
      vertex 54.5 32.43 11
      vertex 52.5 32.43 11
    endloop
  endfacet
  facet normal 0 -1 0
    outer loop
      vertex 52.5 37.7642 10.0594
      vertex 54.5 37.7642 11.9406
      vertex 52.5 37.7642 11.9406
    endloop
  endfacet
  facet normal 0 -1 -0
    outer loop
      vertex 54.5 37.7642 11.9406
      vertex 52.5 37.7642 10.0594
      vertex 54.5 37.7642 10.0594
    endloop
  endfacet
  facet normal 0 -0.766045 -0.642787
    outer loop
      vertex 52.5 37.7642 11.9406
      vertex 54.5 36.555 13.3816
      vertex 52.5 36.555 13.3816
    endloop
  endfacet
  facet normal 0 -0.766045 -0.642787
    outer loop
      vertex 54.5 36.555 13.3816
      vertex 52.5 37.7642 11.9406
      vertex 54.5 37.7642 11.9406
    endloop
  endfacet
  facet normal 0 -0.173648 -0.984808
    outer loop
      vertex 52.5 34.7025 13.7082
      vertex 54.5 36.555 13.3816
      vertex 54.5 34.7025 13.7082
    endloop
  endfacet
  facet normal -0 -0.173648 -0.984808
    outer loop
      vertex 54.5 36.555 13.3816
      vertex 52.5 34.7025 13.7082
      vertex 52.5 36.555 13.3816
    endloop
  endfacet
  facet normal -1 0 0
    outer loop
      vertex 52.5 39.2514 1
      vertex 52.5 37.7642 10.0594
      vertex 52.5 39.2514 16
    endloop
  endfacet
  facet normal -1 0 0
    outer loop
      vertex 52.5 39.2514 1
      vertex 52.5 36.555 8.61843
      vertex 52.5 37.7642 10.0594
    endloop
  endfacet
  facet normal -1 0 0
    outer loop
      vertex 52.5 39.2514 1
      vertex 52.5 34.7025 8.29178
      vertex 52.5 36.555 8.61843
    endloop
  endfacet
  facet normal -1 0 0
    outer loop
      vertex 52.5 24.0845 5.70611
      vertex 52.5 34.7025 8.29178
      vertex 52.5 39.2514 1
    endloop
  endfacet
  facet normal -1 0 0
    outer loop
      vertex 52.5 24.0845 9.29389
      vertex 52.5 33.0734 9.23233
      vertex 52.5 24.0845 5.70611
    endloop
  endfacet
  facet normal -1 -0 0
    outer loop
      vertex 52.5 34.7025 8.29178
      vertex 52.5 24.0845 5.70611
      vertex 52.5 33.0734 9.23233
    endloop
  endfacet
  facet normal -1 0 0
    outer loop
      vertex 52.5 39.2514 1
      vertex 52.5 21.0845 2.70611
      vertex 52.5 24.0845 5.70611
    endloop
  endfacet
  facet normal -1 0 0
    outer loop
      vertex 52.5 39.2514 1
      vertex 52.5 20.5255 2.52447
      vertex 52.5 21.0845 2.70611
    endloop
  endfacet
  facet normal -1 0 0
    outer loop
      vertex 52.5 39.2514 1
      vertex 52.5 11.5255 2.52447
      vertex 52.5 20.5255 2.52447
    endloop
  endfacet
  facet normal -1 -0 0
    outer loop
      vertex 52.5 8.18 6
      vertex 52.5 0.0799996 2
      vertex 52.5 8.18 9
    endloop
  endfacet
  facet normal -1 -0 0
    outer loop
      vertex 52.5 8.52549 5.52447
      vertex 52.5 0.0799996 2
      vertex 52.5 8.18 6
    endloop
  endfacet
  facet normal -1 -0 0
    outer loop
      vertex 52.5 11.5255 2.52447
      vertex 52.5 0.0799996 2
      vertex 52.5 8.52549 5.52447
    endloop
  endfacet
  facet normal -1 0 0
    outer loop
      vertex 52.5 39.2514 1
      vertex 52.5 0.0799996 2
      vertex 52.5 11.5255 2.52447
    endloop
  endfacet
  facet normal -1 0 0
    outer loop
      vertex 52.5 -11.82 1
      vertex 52.5 0.0799996 2
      vertex 52.5 39.2514 1
    endloop
  endfacet
  facet normal -1 -0 0
    outer loop
      vertex 52.5 -8.82 2
      vertex 52.5 -11.82 1
      vertex 52.5 -8.82 13
    endloop
  endfacet
  facet normal -1 -0 0
    outer loop
      vertex 52.5 0.0799996 2
      vertex 52.5 -11.82 1
      vertex 52.5 -8.82 2
    endloop
  endfacet
  facet normal -1 0 0
    outer loop
      vertex 52.5 37.7642 11.9406
      vertex 52.5 39.2514 16
      vertex 52.5 37.7642 10.0594
    endloop
  endfacet
  facet normal -1 0 0
    outer loop
      vertex 52.5 36.555 13.3816
      vertex 52.5 39.2514 16
      vertex 52.5 37.7642 11.9406
    endloop
  endfacet
  facet normal -1 0 0
    outer loop
      vertex 52.5 34.7025 13.7082
      vertex 52.5 39.2514 16
      vertex 52.5 36.555 13.3816
    endloop
  endfacet
  facet normal -1 0 0
    outer loop
      vertex 52.5 33.0734 9.23233
      vertex 52.5 24.0845 9.29389
      vertex 52.5 32.43 11
    endloop
  endfacet
  facet normal -1 -0 0
    outer loop
      vertex 52.5 32.43 11
      vertex 52.5 24.0845 9.29389
      vertex 52.5 33.0734 12.7677
    endloop
  endfacet
  facet normal -1 0 0
    outer loop
      vertex 52.5 23.5255 9.47553
      vertex 52.5 33.0734 12.7677
      vertex 52.5 24.0845 9.29389
    endloop
  endfacet
  facet normal -1 -0 0
    outer loop
      vertex 52.5 33.0734 12.7677
      vertex 52.5 23.5255 9.47553
      vertex 52.5 34.7025 13.7082
    endloop
  endfacet
  facet normal -1 0 0
    outer loop
      vertex 52.5 0.0799996 13
      vertex 52.5 34.7025 13.7082
      vertex 52.5 23.5255 9.47553
    endloop
  endfacet
  facet normal -1 0 0
    outer loop
      vertex 52.5 0.0799996 13
      vertex 52.5 23.5255 9.47553
      vertex 52.5 8.52549 9.47553
    endloop
  endfacet
  facet normal -1 0 0
    outer loop
      vertex 52.5 0.0799996 13
      vertex 52.5 8.18 9
      vertex 52.5 0.0799996 2
    endloop
  endfacet
  facet normal -1 0 0
    outer loop
      vertex 52.5 8.18 9
      vertex 52.5 0.0799996 13
      vertex 52.5 8.52549 9.47553
    endloop
  endfacet
  facet normal -1 -0 0
    outer loop
      vertex 52.5 34.7025 13.7082
      vertex 52.5 0.0799996 13
      vertex 52.5 39.2514 16
    endloop
  endfacet
  facet normal -1 0 0
    outer loop
      vertex 52.5 -11.82 16
      vertex 52.5 0.0799996 13
      vertex 52.5 -8.82 13
    endloop
  endfacet
  facet normal -1 0 0
    outer loop
      vertex 52.5 0.0799996 13
      vertex 52.5 -11.82 16
      vertex 52.5 39.2514 16
    endloop
  endfacet
  facet normal -1 0 0
    outer loop
      vertex 52.5 -11.82 16
      vertex 52.5 -8.82 13
      vertex 52.5 -11.82 1
    endloop
  endfacet
  facet normal -0 0 1
    outer loop
      vertex 52.5 39.2514 16
      vertex 54.5 -11.82 16
      vertex 54.5 39.2514 16
    endloop
  endfacet
  facet normal 0 0 1
    outer loop
      vertex 54.5 -11.82 16
      vertex 52.5 39.2514 16
      vertex 52.5 -11.82 16
    endloop
  endfacet
  facet normal 1 0 0
    outer loop
      vertex 54.5 37.7642 10.0594
      vertex 54.5 39.2514 16
      vertex 54.5 37.7642 11.9406
    endloop
  endfacet
  facet normal 1 0 0
    outer loop
      vertex 54.5 39.2514 16
      vertex 54.5 36.555 13.3816
      vertex 54.5 37.7642 11.9406
    endloop
  endfacet
  facet normal 1 0 0
    outer loop
      vertex 54.5 39.2514 16
      vertex 54.5 34.7025 13.7082
      vertex 54.5 36.555 13.3816
    endloop
  endfacet
  facet normal 1 0 0
    outer loop
      vertex 54.5 33.0734 12.7677
      vertex 54.5 24.0845 9.29389
      vertex 54.5 32.43 11
    endloop
  endfacet
  facet normal 1 0 0
    outer loop
      vertex 54.5 23.5255 9.47553
      vertex 54.5 33.0734 12.7677
      vertex 54.5 34.7025 13.7082
    endloop
  endfacet
  facet normal 1 0 0
    outer loop
      vertex 54.5 0.0799996 13
      vertex 54.5 34.7025 13.7082
      vertex 54.5 39.2514 16
    endloop
  endfacet
  facet normal 1 0 0
    outer loop
      vertex 54.5 33.0734 12.7677
      vertex 54.5 23.5255 9.47553
      vertex 54.5 24.0845 9.29389
    endloop
  endfacet
  facet normal 1 0 0
    outer loop
      vertex 54.5 34.7025 13.7082
      vertex 54.5 0.0799996 13
      vertex 54.5 23.5255 9.47553
    endloop
  endfacet
  facet normal 1 0 0
    outer loop
      vertex 54.5 8.18 9
      vertex 54.5 0.0799996 13
      vertex 54.5 8.18 6
    endloop
  endfacet
  facet normal 1 0 0
    outer loop
      vertex 54.5 8.52549 9.47553
      vertex 54.5 0.0799996 13
      vertex 54.5 8.18 9
    endloop
  endfacet
  facet normal 1 0 0
    outer loop
      vertex 54.5 23.5255 9.47553
      vertex 54.5 0.0799996 13
      vertex 54.5 8.52549 9.47553
    endloop
  endfacet
  facet normal 1 -0 0
    outer loop
      vertex 54.5 -11.82 16
      vertex 54.5 0.0799996 13
      vertex 54.5 39.2514 16
    endloop
  endfacet
  facet normal 1 0 0
    outer loop
      vertex 54.5 -11.82 0
      vertex 54.5 -8.82 13
      vertex 54.5 -11.82 16
    endloop
  endfacet
  facet normal 1 0 0
    outer loop
      vertex 54.5 0.0799996 13
      vertex 54.5 -11.82 16
      vertex 54.5 -8.82 13
    endloop
  endfacet
  facet normal 1 0 0
    outer loop
      vertex 54.5 39.2514 16
      vertex 54.5 37.7642 10.0594
      vertex 54.5 39.2514 0
    endloop
  endfacet
  facet normal 1 -0 0
    outer loop
      vertex 54.5 36.555 8.61843
      vertex 54.5 39.2514 0
      vertex 54.5 37.7642 10.0594
    endloop
  endfacet
  facet normal 1 -0 0
    outer loop
      vertex 54.5 34.7025 8.29178
      vertex 54.5 39.2514 0
      vertex 54.5 36.555 8.61843
    endloop
  endfacet
  facet normal 1 0 0
    outer loop
      vertex 54.5 24.0845 5.70611
      vertex 54.5 34.7025 8.29178
      vertex 54.5 33.0734 9.23233
    endloop
  endfacet
  facet normal 1 -0 0
    outer loop
      vertex 54.5 24.0845 9.29389
      vertex 54.5 33.0734 9.23233
      vertex 54.5 32.43 11
    endloop
  endfacet
  facet normal 1 0 0
    outer loop
      vertex 54.5 24.0845 5.70611
      vertex 54.5 33.0734 9.23233
      vertex 54.5 24.0845 9.29389
    endloop
  endfacet
  facet normal 1 0 0
    outer loop
      vertex 54.5 34.7025 8.29178
      vertex 54.5 24.0845 5.70611
      vertex 54.5 39.2514 0
    endloop
  endfacet
  facet normal 1 -0 0
    outer loop
      vertex 54.5 21.0845 2.70611
      vertex 54.5 39.2514 0
      vertex 54.5 24.0845 5.70611
    endloop
  endfacet
  facet normal 1 -0 0
    outer loop
      vertex 54.5 20.5255 2.52447
      vertex 54.5 39.2514 0
      vertex 54.5 21.0845 2.70611
    endloop
  endfacet
  facet normal 1 -0 0
    outer loop
      vertex 54.5 11.5255 2.52447
      vertex 54.5 39.2514 0
      vertex 54.5 20.5255 2.52447
    endloop
  endfacet
  facet normal 1 0 0
    outer loop
      vertex 54.5 0.0799996 2
      vertex 54.5 8.18 6
      vertex 54.5 0.0799996 13
    endloop
  endfacet
  facet normal 1 0 0
    outer loop
      vertex 54.5 8.18 6
      vertex 54.5 0.0799996 2
      vertex 54.5 8.52549 5.52447
    endloop
  endfacet
  facet normal 1 0 0
    outer loop
      vertex 54.5 8.52549 5.52447
      vertex 54.5 0.0799996 2
      vertex 54.5 11.5255 2.52447
    endloop
  endfacet
  facet normal 1 0 0
    outer loop
      vertex 54.5 -11.82 0
      vertex 54.5 11.5255 2.52447
      vertex 54.5 0.0799996 2
    endloop
  endfacet
  facet normal 1 0 0
    outer loop
      vertex 54.5 -11.82 0
      vertex 54.5 0.0799996 2
      vertex 54.5 -8.82 2
    endloop
  endfacet
  facet normal 1 0 0
    outer loop
      vertex 54.5 11.5255 2.52447
      vertex 54.5 -11.82 0
      vertex 54.5 39.2514 0
    endloop
  endfacet
  facet normal 1 0 0
    outer loop
      vertex 54.5 -8.82 13
      vertex 54.5 -11.82 0
      vertex 54.5 -8.82 2
    endloop
  endfacet
  facet normal 0 1 0
    outer loop
      vertex 54.5 39.2514 16
      vertex 53.28 39.2514 1
      vertex 52.5 39.2514 16
    endloop
  endfacet
  facet normal 0 1 -0
    outer loop
      vertex 54.5 39.2514 0
      vertex 53.28 39.2514 1
      vertex 54.5 39.2514 16
    endloop
  endfacet
  facet normal 0 1 0
    outer loop
      vertex 53.28 39.2514 1
      vertex 54.5 39.2514 0
      vertex 53.28 39.2514 0
    endloop
  endfacet
  facet normal 0 1 0
    outer loop
      vertex 52.5 39.2514 16
      vertex 53.28 39.2514 1
      vertex 52.5 39.2514 1
    endloop
  endfacet
  facet normal -1 0 0
    outer loop
      vertex 29 0 0
      vertex 29 117 1
      vertex 29 117 0
    endloop
  endfacet
  facet normal -1 -0 0
    outer loop
      vertex 29 117 1
      vertex 29 0 0
      vertex 29 0 1
    endloop
  endfacet
  facet normal 0 1 -0
    outer loop
      vertex 32 117 0
      vertex 29 117 1
      vertex 32 117 1
    endloop
  endfacet
  facet normal 0 1 0
    outer loop
      vertex 29 117 1
      vertex 32 117 0
      vertex 29 117 0
    endloop
  endfacet
  facet normal 0 -1 0
    outer loop
      vertex 29 0 0
      vertex 32 0 1
      vertex 29 0 1
    endloop
  endfacet
  facet normal 0 -1 -0
    outer loop
      vertex 32 0 1
      vertex 29 0 0
      vertex 32 0 0
    endloop
  endfacet
  facet normal 0.809016 0.587786 0
    outer loop
      vertex 32 1.5 6
      vertex 30.9635 2.92658 1
      vertex 30.9635 2.92658 6
    endloop
  endfacet
  facet normal 0.809016 0.587786 0
    outer loop
      vertex 30.9635 2.92658 1
      vertex 32 1.5 6
      vertex 32 1.5 1
    endloop
  endfacet
  facet normal -1 0 0
    outer loop
      vertex 29.2865 0.618321 1
      vertex 29.2865 2.38168 6
      vertex 29.2865 2.38168 1
    endloop
  endfacet
  facet normal -1 -0 0
    outer loop
      vertex 29.2865 2.38168 6
      vertex 29.2865 0.618321 1
      vertex 29.2865 0.618321 6
    endloop
  endfacet
  facet normal -0.309017 0.951056 0
    outer loop
      vertex 30.9635 2.92658 1
      vertex 29.2865 2.38168 6
      vertex 30.9635 2.92658 6
    endloop
  endfacet
  facet normal -0.309017 0.951056 0
    outer loop
      vertex 29.2865 2.38168 6
      vertex 30.9635 2.92658 1
      vertex 29.2865 2.38168 1
    endloop
  endfacet
  facet normal 0 0 1
    outer loop
      vertex 30.9635 2.92658 6
      vertex 30.9635 0.0734148 6
      vertex 32 1.5 6
    endloop
  endfacet
  facet normal -0 0 1
    outer loop
      vertex 29.2865 2.38168 6
      vertex 30.9635 0.0734148 6
      vertex 30.9635 2.92658 6
    endloop
  endfacet
  facet normal 0 0 1
    outer loop
      vertex 30.9635 0.0734148 6
      vertex 29.2865 2.38168 6
      vertex 29.2865 0.618321 6
    endloop
  endfacet
  facet normal 0.809017 -0.587786 0
    outer loop
      vertex 30.9635 0.0734148 6
      vertex 32 1.5 1
      vertex 32 1.5 6
    endloop
  endfacet
  facet normal 0.809017 -0.587786 0
    outer loop
      vertex 32 1.5 1
      vertex 30.9635 0.0734148 6
      vertex 30.9635 0.0734148 1
    endloop
  endfacet
  facet normal -0.309017 -0.951056 0
    outer loop
      vertex 29.2865 0.618321 1
      vertex 30.9635 0.0734148 6
      vertex 29.2865 0.618321 6
    endloop
  endfacet
  facet normal -0.309017 -0.951056 -0
    outer loop
      vertex 30.9635 0.0734148 6
      vertex 29.2865 0.618321 1
      vertex 30.9635 0.0734148 1
    endloop
  endfacet
  facet normal 0.809016 0.587787 0
    outer loop
      vertex 32 115.5 6
      vertex 30.9635 116.927 1
      vertex 30.9635 116.927 6
    endloop
  endfacet
  facet normal 0.809016 0.587787 0
    outer loop
      vertex 30.9635 116.927 1
      vertex 32 115.5 6
      vertex 32 115.5 1
    endloop
  endfacet
  facet normal -1 0 0
    outer loop
      vertex 29.2865 114.618 1
      vertex 29.2865 116.382 6
      vertex 29.2865 116.382 1
    endloop
  endfacet
  facet normal -1 -0 0
    outer loop
      vertex 29.2865 116.382 6
      vertex 29.2865 114.618 1
      vertex 29.2865 114.618 6
    endloop
  endfacet
  facet normal -0.309017 0.951056 0
    outer loop
      vertex 30.9635 116.927 1
      vertex 29.2865 116.382 6
      vertex 30.9635 116.927 6
    endloop
  endfacet
  facet normal -0.309017 0.951056 0
    outer loop
      vertex 29.2865 116.382 6
      vertex 30.9635 116.927 1
      vertex 29.2865 116.382 1
    endloop
  endfacet
  facet normal 0 0 1
    outer loop
      vertex 30.9635 116.927 6
      vertex 30.9635 114.073 6
      vertex 32 115.5 6
    endloop
  endfacet
  facet normal -0 0 1
    outer loop
      vertex 29.2865 116.382 6
      vertex 30.9635 114.073 6
      vertex 30.9635 116.927 6
    endloop
  endfacet
  facet normal 0 0 1
    outer loop
      vertex 30.9635 114.073 6
      vertex 29.2865 116.382 6
      vertex 29.2865 114.618 6
    endloop
  endfacet
  facet normal 0.809016 -0.587787 0
    outer loop
      vertex 30.9635 114.073 6
      vertex 32 115.5 1
      vertex 32 115.5 6
    endloop
  endfacet
  facet normal 0.809016 -0.587787 0
    outer loop
      vertex 32 115.5 1
      vertex 30.9635 114.073 6
      vertex 30.9635 114.073 1
    endloop
  endfacet
  facet normal -0.309017 -0.951056 0
    outer loop
      vertex 29.2865 114.618 1
      vertex 30.9635 114.073 6
      vertex 29.2865 114.618 6
    endloop
  endfacet
  facet normal -0.309017 -0.951056 -0
    outer loop
      vertex 30.9635 114.073 6
      vertex 29.2865 114.618 1
      vertex 30.9635 114.073 1
    endloop
  endfacet
endsolid OpenSCAD_Model
